<?xml version="1.0" standalone="no"?>
<!DOCTYPE svg PUBLIC "-//W3C//DTD SVG 20010904//EN"
 "http://www.w3.org/TR/2001/REC-SVG-20010904/DTD/svg10.dtd">
<svg version="1.0" xmlns="http://www.w3.org/2000/svg"
 width="2000.000000pt" height="2000.000000pt" viewBox="0 0 2000.000000 2000.000000"
 preserveAspectRatio="xMidYMid meet">
<metadata>
Created by potrace 1.14, written by Peter Selinger 2001-2017
</metadata>
<g transform="translate(0.000000,2000.000000) scale(0.100000,-0.100000)"
fill="#000000" stroke="none">
<path d="M13420 14660 c-18 -18 -20 -34 -20 -187 -1 -625 -21 -1838 -30 -1847
-6 -6 -242 -11 -695 -13 -593 -2 -689 -5 -715 -18 -26 -13 -97 -15 -517 -14
-269 1 -509 -2 -535 -6 -34 -5 -52 -3 -68 8 -19 13 -97 14 -608 10 -323 -2
-987 -6 -1477 -8 -2596 -10 -3624 -16 -3662 -21 -33 -5 -45 -2 -62 15 -12 12
-21 32 -21 45 0 13 -11 77 -24 142 -39 195 -54 314 -76 629 -5 77 -16 210 -24
295 -8 85 -22 256 -30 380 -25 355 -26 372 -42 402 -13 24 -13 35 -2 64 21 60
8 69 -115 72 -112 3 -137 -6 -137 -48 0 -39 29 -53 100 -47 62 5 103 -3 88
-19 -4 -3 -43 -7 -86 -8 -96 -2 -112 -12 -112 -71 0 -29 -7 -51 -22 -71 -20
-24 -22 -40 -23 -128 0 -56 4 -119 8 -141 13 -62 -3 -75 -102 -85 -51 -6 -93
-5 -108 1 -35 13 -60 3 -75 -29 -13 -26 -17 -27 -106 -32 -78 -4 -96 -8 -108
-24 -14 -19 -17 -63 -18 -238 -1 -117 -20 -101 -26 22 l-5 105 -39 20 c-21 11
-42 29 -46 40 -10 28 -36 49 -44 36 -10 -16 -19 -166 -12 -195 3 -14 26 -50
51 -81 50 -60 51 -66 31 -98 -8 -12 -17 -38 -20 -57 -5 -31 -12 -38 -48 -50
-80 -29 -78 -78 7 -128 82 -49 89 -103 17 -137 -23 -11 -41 -24 -39 -30 5 -15
65 -42 122 -56 78 -18 121 -38 154 -73 63 -65 49 -139 -36 -195 l-48 -32 -115
6 c-63 4 -164 13 -225 22 -60 9 -141 16 -180 18 -38 1 -81 5 -95 8 -31 9 -55
-5 -47 -27 3 -8 24 -25 47 -36 23 -11 44 -28 47 -36 3 -8 18 -21 33 -29 15 -8
67 -53 116 -100 49 -48 105 -97 124 -109 19 -13 46 -36 60 -50 13 -15 47 -33
76 -42 52 -15 166 -78 217 -121 35 -28 75 -39 90 -24 18 18 65 13 87 -9 11
-11 35 -26 55 -34 39 -17 55 -47 55 -104 0 -59 27 -155 47 -169 14 -11 74 -13
272 -12 291 1 285 3 276 -81 -2 -25 -7 -130 -10 -235 -6 -202 -26 -418 -49
-550 -21 -116 -45 -198 -118 -395 -36 -96 -84 -230 -107 -298 -23 -68 -62
-171 -85 -230 -24 -59 -51 -131 -61 -160 -9 -29 -32 -78 -51 -109 -18 -31 -36
-66 -40 -77 -3 -12 -21 -52 -40 -91 l-34 -70 -15 -925 c-8 -509 -17 -1143 -21
-1410 -5 -436 -7 -490 -24 -535 -43 -116 -44 -210 -5 -285 16 -30 18 -58 16
-220 l-2 -186 50 -149 c28 -83 55 -169 61 -192 8 -31 19 -47 45 -63 43 -26 52
-44 99 -185 70 -214 83 -316 111 -885 8 -168 17 -330 20 -360 3 -30 14 -230
25 -445 11 -214 22 -415 25 -445 3 -30 12 -192 21 -359 8 -168 21 -374 29
-459 19 -203 10 -189 234 -386 390 -342 570 -492 615 -511 49 -21 454 -66 728
-80 71 -4 131 -7 135 -7 5 0 12 -6 16 -14 10 -17 34 -19 39 -3 3 9 9 9 24 1
12 -6 126 -9 329 -7 171 2 420 3 555 2 573 -4 2221 -1 3625 6 2753 14 2939 18
3038 69 22 11 84 61 140 111 111 101 385 332 460 387 26 19 89 76 140 125 l93
91 10 160 c13 189 26 229 42 134 7 -34 9 -66 6 -71 -2 -4 1 -28 7 -53 22 -87
-2 -135 -132 -265 -36 -36 -86 -84 -110 -105 -24 -22 -142 -135 -261 -252
-146 -142 -218 -219 -218 -233 0 -25 0 -25 73 -6 131 34 239 110 504 353 51
46 101 91 112 98 20 15 109 137 119 164 3 8 13 33 23 55 12 28 19 79 23 170 3
72 11 157 16 190 5 33 10 94 10 135 0 58 5 85 21 115 18 34 20 44 10 72 -9 24
-9 38 0 54 7 14 9 47 5 98 -10 112 -10 129 2 206 6 39 13 151 16 250 3 126 9
193 20 222 9 25 17 89 19 160 4 111 15 177 39 248 5 17 9 47 9 67 -1 21 3 46
8 57 6 10 15 60 21 111 6 50 16 104 24 118 7 15 16 52 20 82 4 30 14 65 22 77
8 12 19 46 25 75 6 28 18 58 25 66 8 7 14 28 14 46 0 18 12 64 26 102 38 101
42 119 54 202 6 41 14 80 19 86 19 22 40 100 34 126 -3 16 1 32 10 41 8 8 17
28 20 44 22 112 25 141 18 217 -4 47 -6 122 -3 168 3 47 -1 112 -8 152 -10 52
-11 71 -2 80 17 17 15 51 -9 130 -15 49 -20 83 -15 114 3 24 1 55 -4 68 -9 25
-19 189 -24 424 -2 67 -6 126 -10 129 -12 12 -6 51 10 64 12 10 14 24 9 71 -5
40 -3 63 5 73 12 14 9 94 -6 164 -5 26 -3 36 10 43 23 13 20 37 -15 102 l-31
57 21 23 c22 23 22 25 6 91 -8 37 -13 70 -11 73 3 2 -2 22 -11 43 -14 35 -13
40 1 54 9 9 16 25 16 36 0 27 -21 111 -31 124 -4 6 -6 90 -5 188 2 129 -1 182
-9 191 -18 17 -45 73 -45 91 0 8 -5 15 -11 15 -7 0 -8 11 -4 31 5 22 2 36 -10
49 -14 15 -16 29 -11 60 4 26 2 50 -8 68 -10 20 -11 42 -6 82 8 58 4 132 -10
165 -10 25 -19 83 -29 196 -5 61 -14 96 -29 121 -12 19 -22 42 -22 50 0 9 -7
21 -15 28 -13 11 -15 31 -10 127 4 70 3 119 -3 126 -14 17 -35 121 -38 187 -1
30 -8 82 -14 115 -8 43 -9 79 -1 130 27 184 23 335 -9 335 -15 0 -18 15 -23
128 -3 70 -14 190 -26 267 -11 77 -32 235 -46 350 -14 116 -28 225 -31 242 -5
29 -3 34 21 43 24 9 26 14 20 43 -4 17 -20 62 -36 99 -16 36 -29 78 -29 92 0
22 4 26 30 26 30 0 39 16 21 36 -5 5 -12 50 -14 99 -7 138 -25 251 -49 302
-20 43 -22 44 -36 27 -11 -15 -12 -39 -6 -119 5 -55 7 -132 6 -171 -3 -63 0
-73 23 -98 26 -28 33 -56 15 -56 -6 0 -24 7 -41 15 l-29 16 6 187 c5 143 3
218 -9 313 -9 68 -21 173 -27 232 -6 60 -19 130 -29 155 -16 40 -19 92 -25
357 -3 171 -10 331 -15 357 -4 27 -24 71 -44 103 l-37 55 -104 0 c-117 0 -136
-9 -136 -62 0 -45 -21 -161 -31 -172 -9 -10 -416 -12 -426 -3 -3 3 11 44 31
90 42 97 39 127 -13 145 -32 11 -41 36 -17 45 7 3 31 3 53 0 49 -6 73 14 73
63 0 27 -8 42 -32 64 l-31 29 11 68 c23 137 23 140 7 157 -9 9 -24 16 -33 16
-10 0 -34 14 -54 30 -31 26 -39 39 -44 81 -5 36 -13 54 -28 63 -14 9 -75 16
-176 20 l-155 5 -21 -26 c-20 -25 -27 -27 -92 -26 -39 0 -75 4 -81 8 -8 4 -11
103 -11 304 0 276 -1 299 -18 314 -27 24 -97 22 -122 -3z m670 -714 c0 -30
-22 -49 -52 -44 -49 7 -28 68 23 68 24 0 29 -4 29 -24z m-9764 -130 c3 -12 4
-47 2 -76 -3 -59 -14 -68 -63 -56 -19 5 -25 15 -31 52 -8 54 6 91 38 103 30
11 47 4 54 -23z m9298 -12 c38 -14 7 -68 -36 -62 -29 4 -36 37 -12 55 20 15
26 16 48 7z m281 -14 c3 -5 0 -20 -7 -32 -6 -13 -15 -43 -18 -68 -5 -42 -7
-45 -35 -45 -25 0 -33 7 -50 40 -14 27 -38 50 -73 70 -28 17 -51 33 -52 38 0
11 228 9 235 -3z m275 -19 c0 -21 -28 -37 -42 -23 -14 14 2 42 23 42 12 0 19
-7 19 -19z m-9652 -11 c26 -6 53 -21 67 -38 23 -27 23 -27 54 -9 27 16 32 16
37 3 13 -35 -46 -86 -100 -86 -18 0 -30 9 -40 29 -17 32 -34 41 -77 41 -16 0
-29 2 -29 4 0 2 -3 11 -6 19 -6 16 20 47 39 47 7 0 31 -5 55 -10z m-624 -399
c10 -16 -5 -41 -25 -41 -19 0 -27 29 -12 43 9 10 31 9 37 -2z m10184 -144 c2
-11 -3 -17 -17 -17 -23 0 -35 15 -26 31 10 15 39 6 43 -14z m-9711 -274 c-7
-214 -12 -263 -27 -263 -16 0 -18 50 -9 229 11 216 16 251 31 251 8 0 9 -60 5
-217z m10241 -20 c-3 -15 -17 -18 -93 -21 -88 -3 -143 3 -132 14 8 9 104 21
170 23 51 1 58 -1 55 -16z m-11053 -186 c22 -5 84 -12 137 -14 58 -3 100 -9
105 -16 5 -7 7 -60 5 -119 -3 -96 -6 -108 -23 -113 -15 -5 -31 5 -63 37 -65
66 -165 148 -181 148 -12 0 -75 81 -75 97 0 3 12 2 28 -2 15 -4 45 -12 67 -18z
m9681 -208 c9 -16 -20 -41 -39 -33 -9 3 -17 12 -17 19 0 22 44 33 56 14z
m-146 -8 c0 -11 -26 -22 -34 -14 -12 12 -5 23 14 23 11 0 20 -4 20 -9z m-8816
-162 c-3 -5 -10 -7 -15 -3 -5 3 -7 10 -3 15 3 5 10 7 15 3 5 -3 7 -10 3 -15z
m9064 -11 c31 -31 1 -89 -37 -69 -11 6 -37 11 -58 11 -21 0 -48 3 -60 6 -19 5
-21 10 -12 25 8 15 21 19 62 19 29 0 59 5 67 10 19 13 24 12 38 -2z m-3105
-15 c51 -8 139 -13 197 -12 289 6 386 4 422 -9 21 -8 35 -18 32 -24 -4 -6
-114 -9 -283 -7 -233 1 -286 -1 -344 -16 -59 -15 -79 -15 -165 -5 -152 20
-291 23 -364 10 -50 -9 -94 -9 -180 0 -91 8 -211 16 -315 20 -7 0 -13 5 -13
11 0 6 23 10 58 9 52 -1 91 3 252 29 95 14 600 11 703 -6z m2319 -15 c43 5 91
-5 83 -18 -3 -4 -93 -9 -201 -9 -153 -1 -195 2 -192 11 6 17 93 25 193 17 44
-3 97 -4 117 -1z m336 -6 c2 -7 -7 -12 -22 -12 -27 0 -35 15 -13 23 17 7 30 3
35 -11z m-7403 -9 c110 -3 227 -8 260 -10 33 -2 77 -4 98 -4 57 1 46 -23 -20
-43 -44 -12 -135 -20 -363 -28 -168 -6 -317 -9 -331 -5 -28 7 -49 43 -49 83
l0 25 103 -5 c56 -3 192 -9 302 -13z m6670 11 c12 -5 14 -9 4 -14 -15 -10 -41
-1 -33 11 6 11 8 11 29 3z m650 -3 c8 -13 -31 -24 -56 -16 -17 6 -19 9 -8 16
18 12 56 11 64 0z m195 -1 c0 -5 -7 -10 -15 -10 -8 0 -15 5 -15 10 0 6 7 10
15 10 8 0 15 -4 15 -10z m105 0 c4 -6 -5 -10 -20 -10 -15 0 -24 4 -20 10 3 6
12 10 20 10 8 0 17 -4 20 -10z m-4332 -10 c7 0 4 -5 -6 -11 -21 -12 -51 -4
-42 12 4 6 14 8 22 5 8 -3 20 -6 26 -6z m412 0 c4 -6 -7 -10 -24 -10 -17 0
-31 5 -31 10 0 6 11 10 24 10 14 0 28 -4 31 -10z m575 -150 c95 6 341 6 345
-1 3 -4 -2 -15 -11 -24 -15 -14 -42 -16 -193 -16 -97 0 -236 -1 -309 -3 -101
-2 -135 0 -143 11 -26 31 5 38 148 35 76 -2 149 -3 163 -2z m238 -166 c39 -19
72 -39 72 -44 0 -14 -141 -12 -220 2 -36 7 -91 13 -123 13 -38 0 -57 4 -57 12
0 20 62 46 105 45 22 -1 56 3 75 7 43 11 56 7 148 -35z m-3855 -20 c43 -4 77
-11 77 -17 0 -6 -17 -7 -42 -4 -24 3 -61 2 -83 -3 -22 -5 -73 -14 -113 -20
-41 -7 -113 -25 -160 -42 -48 -16 -107 -35 -132 -43 -43 -12 -133 -57 -228
-112 -81 -46 -61 -13 33 57 117 87 306 163 441 178 108 13 120 13 207 6z
m3484 -20 c5 -14 -63 -48 -77 -39 -14 8 -13 28 2 43 15 15 70 12 75 -4z
m-3141 -15 c11 -18 -13 -34 -31 -19 -8 7 -15 16 -15 21 0 13 38 11 46 -2z
m2692 -21 c7 -7 12 -24 12 -38 0 -33 -17 -50 -50 -50 -51 0 -66 44 -28 80 25
23 48 26 66 8z m1341 -11 c6 -8 8 -16 5 -20 -10 -9 -34 4 -34 19 0 18 14 18
29 1z m-5343 -24 c7 -28 -10 -134 -27 -165 -12 -23 -39 -23 -40 0 -3 34 3 177
8 185 2 4 15 7 28 7 18 0 26 -7 31 -27z m4079 -1 c0 -18 -20 -15 -23 4 -3 10
1 15 10 12 7 -3 13 -10 13 -16z m570 -22 c0 -15 -14 -19 -140 -38 -33 -5 -115
-24 -182 -41 -67 -17 -129 -28 -137 -25 -35 14 -5 55 49 69 17 4 75 11 130 15
55 5 129 16 165 24 79 17 115 16 115 -4z m616 -20 c27 -15 25 -42 -3 -38 -15
2 -24 11 -26 26 -4 25 1 27 29 12z m-346 -18 c41 -6 50 -11 55 -32 5 -21 13
-26 55 -31 29 -3 81 -21 122 -42 40 -20 84 -37 97 -37 37 0 77 -18 111 -49 17
-15 50 -39 75 -54 25 -14 104 -83 175 -152 72 -70 144 -134 160 -142 17 -9 46
-32 65 -52 20 -20 68 -61 108 -91 40 -30 80 -62 89 -71 9 -9 40 -42 69 -72 48
-50 57 -55 78 -47 13 5 27 14 31 20 13 21 89 50 131 50 58 0 126 -26 171 -65
l38 -35 -35 -30 c-19 -17 -70 -54 -112 -81 -42 -27 -120 -89 -174 -137 -200
-181 -387 -315 -589 -426 -174 -95 -274 -137 -345 -145 -31 -4 -92 -21 -135
-38 -324 -129 -890 -123 -1295 13 -123 41 -330 141 -456 220 -98 62 -360 256
-439 325 -87 77 -207 162 -290 205 -64 33 -80 46 -80 64 0 13 7 27 15 31 8 5
40 23 70 41 77 44 149 44 221 -2 27 -18 63 -52 80 -76 16 -24 37 -44 45 -44
14 0 74 50 228 191 34 31 104 90 156 132 52 42 127 104 165 137 39 33 120 98
180 144 61 46 119 93 130 106 11 12 47 36 80 53 59 29 62 30 230 32 l170 2
101 41 c56 23 118 42 138 42 50 0 97 21 148 68 48 44 64 52 93 45 11 -2 43 -7
70 -11z m-3483 -36 c36 -19 100 -62 141 -95 182 -147 292 -331 343 -571 16
-77 18 -269 3 -360 -49 -309 -251 -592 -534 -750 -57 -32 -285 -110 -321 -110
-46 0 33 41 106 55 43 9 144 50 179 74 14 10 58 39 96 65 96 64 202 171 272
274 69 102 102 168 138 277 25 74 27 93 27 265 1 170 -1 192 -25 279 -15 51
-33 101 -40 110 -8 9 -19 31 -25 49 -30 89 -229 322 -335 392 -58 39 -111 80
-101 80 5 0 39 -16 76 -34z m6256 -147 c-251 -233 -352 -479 -335 -816 4 -76
3 -123 -3 -123 -5 0 -12 12 -15 28 -4 15 -13 52 -21 83 -38 148 2 394 92 559
77 140 208 286 303 335 83 43 78 26 -21 -66z m-6685 74 c-7 -2 -19 -2 -25 0
-7 3 -2 5 12 5 14 0 19 -2 13 -5z m-299 -26 c-5 -13 -131 -77 -152 -77 -5 0
-20 -8 -33 -19 -13 -10 -35 -22 -48 -26 -14 -4 -29 -12 -35 -16 -6 -5 -33 -24
-60 -41 -27 -18 -61 -43 -75 -57 -34 -34 -121 -162 -121 -178 0 -7 -4 -13 -9
-13 -5 0 -17 -18 -27 -40 -20 -46 -35 -45 -24 2 7 32 20 60 67 145 48 87 260
253 383 300 78 30 82 31 112 32 19 1 26 -3 22 -12z m540 -19 c33 -11 71 -28
84 -39 14 -10 29 -19 34 -19 16 0 114 -77 164 -130 27 -28 59 -69 72 -92 12
-23 29 -49 37 -58 8 -9 18 -30 21 -48 3 -17 15 -39 25 -48 23 -21 27 -104 5
-104 -20 0 -36 24 -43 64 -3 19 -14 43 -24 52 -11 9 -19 27 -19 39 0 13 -7 28
-16 36 -8 7 -22 25 -30 41 -8 15 -20 28 -27 28 -7 0 -21 17 -32 37 -26 48
-111 133 -134 133 -5 0 -22 11 -38 24 -16 14 -41 28 -56 31 -15 4 -31 15 -36
23 -5 9 -31 21 -57 27 -26 5 -49 16 -52 24 -5 16 30 10 122 -21z m-1053 3
c-12 -22 -68 -71 -82 -71 -13 0 -11 23 4 42 12 16 65 47 80 48 4 0 3 -9 -2
-19z m1282 -431 c7 -6 23 -18 36 -28 26 -20 23 -59 -5 -59 -18 0 -54 53 -54
80 0 19 6 21 23 7z m-228 -50 c3 -5 1 -10 -4 -10 -6 0 -11 5 -11 10 0 6 2 10
4 10 3 0 8 -4 11 -10z m8065 -11 c0 -6 -4 -7 -10 -4 -5 3 -10 11 -10 16 0 6 5
7 10 4 6 -3 10 -11 10 -16z m-8207 -29 c-37 -16 -43 -24 -43 -49 0 -39 -9 -61
-25 -61 -16 0 -39 65 -30 81 11 16 86 48 115 48 20 0 17 -4 -17 -19z m8082
-57 c3 -21 11 -64 17 -95 12 -66 3 -225 -19 -307 -29 -112 -115 -262 -206
-359 -60 -63 -238 -185 -264 -180 -14 2 -8 10 25 33 123 85 204 166 284 285
127 187 182 431 142 628 -4 20 -2 32 4 32 6 0 14 -17 17 -37z m-7443 -64 c3
-30 12 -95 18 -145 13 -104 3 -167 -30 -184 -15 -8 -20 -21 -20 -51 0 -38 -2
-40 -27 -37 -25 3 -28 7 -28 38 0 28 5 37 28 48 25 12 28 18 23 45 -9 49 -9
288 -1 320 11 43 29 26 37 -34z m-198 -1 c23 -32 20 -46 -9 -41 -31 6 -47 26
-39 47 9 23 30 20 48 -6z m-984 -10 c0 -16 -3 -19 -11 -11 -6 6 -8 16 -5 22
11 17 16 13 16 -11z m-450 -83 c0 -12 -5 -26 -12 -33 -9 -9 -7 -19 11 -42 18
-25 21 -39 16 -73 -5 -29 -2 -51 9 -72 9 -16 16 -43 16 -58 0 -15 9 -45 20
-65 10 -20 22 -48 25 -62 3 -14 17 -38 31 -54 22 -25 27 -27 42 -14 24 21 92
38 125 31 25 -5 27 -3 27 24 0 22 7 33 25 41 20 9 25 19 25 47 0 38 0 38 24
29 18 -7 23 -64 6 -64 -5 0 -10 -7 -10 -15 0 -8 5 -15 10 -15 6 0 10 4 10 8 0
12 49 13 71 2 10 -6 19 -17 19 -24 0 -7 9 -21 20 -31 34 -31 24 -77 -21 -101
-16 -8 -29 -22 -29 -32 0 -24 -36 -116 -47 -119 -5 -2 -15 7 -21 21 -6 13 -20
27 -31 31 -11 3 -25 22 -32 43 -15 48 -22 56 -76 87 -43 26 -45 26 -64 9 -10
-9 -19 -23 -19 -31 0 -22 73 -111 103 -123 15 -7 27 -16 27 -21 0 -12 78 -51
114 -56 17 -2 43 -13 58 -24 15 -10 38 -19 51 -19 55 0 119 91 110 156 -3 19
1 41 11 57 9 13 17 41 18 61 1 30 -5 42 -33 66 l-34 29 33 26 c18 15 39 40 47
56 9 16 20 29 25 29 12 0 13 -47 1 -54 -5 -3 -11 -14 -13 -24 -4 -15 2 -18 45
-17 68 0 83 -23 40 -59 -35 -30 -58 -84 -54 -133 1 -23 -6 -38 -24 -55 -23
-22 -24 -27 -14 -56 11 -32 12 -33 31 -15 11 10 22 17 24 15 2 -1 18 -10 36
-21 38 -20 50 -51 21 -51 -10 0 -29 7 -41 16 -27 19 -66 15 -70 -7 -1 -9 5
-26 15 -38 16 -19 29 -22 109 -24 75 -2 95 1 111 15 19 18 106 28 120 15 3 -4
1 -18 -5 -32 -11 -24 -17 -26 -67 -24 -32 1 -61 -3 -67 -9 -17 -17 -211 -16
-246 2 -15 7 -57 16 -94 18 -43 4 -76 12 -95 25 -15 11 -41 23 -56 27 -51 12
-165 89 -239 161 -109 106 -162 199 -204 355 -20 72 -28 314 -12 343 11 21 12
20 29 -18 10 -22 19 -49 19 -60z m1058 61 c2 -10 -8 -31 -24 -47 l-27 -28 27
-12 c22 -10 26 -18 24 -43 -4 -41 -22 -43 -46 -3 -13 23 -30 36 -51 40 -39 8
-42 39 -6 55 14 6 25 19 25 27 0 17 35 35 60 32 8 -1 16 -10 18 -21z m7099
-22 c5 -16 -28 -47 -38 -37 -13 13 2 54 19 51 8 -2 17 -8 19 -14z m-7417 -64
c0 -5 -4 -10 -10 -10 -5 0 -10 5 -10 10 0 6 5 10 10 10 6 0 10 -4 10 -10z
m7764 -16 c10 -26 7 -44 -8 -44 -17 0 -28 24 -20 45 8 19 20 19 28 -1z m707
-97 c-13 -13 -14 5 -3 54 l7 34 3 -39 c2 -21 -1 -43 -7 -49z m-9058 -51 c12
-3 24 -1 25 4 7 20 31 9 49 -20 19 -33 25 -35 55 -19 11 6 22 8 25 5 6 -5 -21
-36 -32 -36 -15 0 -35 -30 -35 -53 0 -39 -10 -38 -64 5 -28 23 -53 43 -55 45
-2 1 -10 26 -17 55 -13 47 -12 54 4 71 17 19 17 18 20 -16 2 -26 9 -36 25 -41z
m820 -4 c24 -26 6 -45 -54 -58 -46 -10 -58 -10 -96 7 -58 25 -57 43 1 35 39
-6 45 -5 51 14 8 26 74 28 98 2z m532 8 c10 -16 -16 -43 -28 -31 -11 11 -2 41
12 41 5 0 13 -5 16 -10z m-1760 -43 c13 -64 54 -184 99 -292 25 -60 46 -113
46 -118 0 -5 14 -23 32 -40 17 -18 44 -50 60 -72 16 -22 66 -77 110 -122 44
-46 77 -83 72 -83 -39 2 -234 193 -260 256 -16 38 -25 41 -48 18 -14 -13 -16
-49 -16 -243 0 -191 -2 -231 -15 -241 -12 -10 -18 -10 -30 0 -14 12 -15 51 -9
329 l6 316 -30 81 c-47 129 -66 270 -33 250 5 -4 12 -21 16 -39z m7355 -47 c0
-5 -4 -10 -10 -10 -5 0 -10 5 -10 10 0 6 5 10 10 10 6 0 10 -4 10 -10z m-5552
-123 c3 -20 0 -25 -11 -21 -16 6 -29 39 -19 49 12 12 27 -2 30 -28z m5086 7
c24 -9 19 -20 -16 -35 -38 -15 -160 -111 -226 -177 -67 -67 -245 -212 -295
-242 -23 -13 -45 -29 -49 -36 -5 -7 -33 -29 -64 -50 -31 -22 -70 -49 -88 -62
-99 -71 -239 -147 -346 -188 -36 -14 -84 -34 -108 -44 -23 -11 -52 -20 -63
-20 -11 0 -30 -5 -42 -12 -60 -32 -160 -61 -237 -68 -47 -4 -98 -15 -114 -23
-15 -8 -56 -18 -90 -22 -33 -4 -86 -14 -116 -23 -46 -13 -110 -16 -380 -15
-228 0 -334 4 -355 12 -23 10 -27 14 -15 20 8 5 141 11 295 14 387 8 570 37
871 136 66 22 164 60 218 85 104 49 325 175 343 198 6 7 51 40 98 73 189 130
454 321 525 378 111 89 197 123 254 101z m2486 -54 c-11 -37 -19 -50 -30 -50
-11 0 5 47 22 67 16 19 17 16 8 -17z m-6980 3 c0 -5 -21 -21 -48 -37 -26 -17
-72 -53 -102 -80 -31 -28 -101 -87 -155 -131 -55 -44 -157 -127 -226 -185 -69
-58 -148 -122 -175 -143 -27 -21 -76 -59 -110 -86 -86 -67 -223 -132 -382
-181 -52 -16 -76 -20 -84 -12 -7 7 1 13 28 20 106 27 139 40 204 83 30 20 71
44 90 54 90 46 328 229 578 444 228 197 246 211 296 236 49 25 86 32 86 18z
m-630 -54 c7 -11 9 -23 6 -26 -7 -7 -36 22 -36 36 0 18 19 12 30 -10z m-50
-44 c0 -20 -94 -112 -140 -135 -43 -22 -66 -25 -74 -11 -11 18 6 39 53 65 27
14 55 33 62 43 17 20 70 53 87 53 6 0 12 -7 12 -15z m-284 -50 c19 -14 19 -14
-2 -15 -12 0 -24 7 -28 15 -7 19 5 19 30 0z m8610 -1 c-3 -9 -6 -20 -6 -25 0
-5 -4 -9 -10 -9 -11 0 -14 33 -3 43 12 13 25 7 19 -9z m-8991 -23 c5 -16 12
-19 39 -14 20 3 36 1 40 -6 4 -6 4 -11 -1 -12 -74 -5 -93 -4 -93 3 0 5 -4 7
-9 4 -10 -6 -22 30 -13 38 12 12 31 5 37 -13z m9145 -10 c0 -6 -5 -13 -11 -17
-6 -3 -17 -22 -25 -40 -8 -19 -19 -34 -24 -34 -15 0 -12 9 18 56 26 41 42 55
42 35z m-8716 -80 c8 -13 -21 -34 -39 -27 -25 9 -18 36 9 36 14 0 27 -4 30 -9z
m1356 -12 c0 -11 -27 -12 -34 0 -3 4 -3 11 0 14 8 8 34 -3 34 -14z m-1432 -51
c-2 -19 -9 -23 -42 -23 -23 0 -41 5 -44 13 -4 13 31 30 66 31 19 1 23 -4 20
-21z m1592 -68 c0 -5 -7 -10 -15 -10 -8 0 -15 5 -15 10 0 6 7 10 15 10 8 0 15
-4 15 -10z m-800 -139 c0 -5 -7 -12 -16 -15 -14 -5 -15 -4 -4 9 14 17 20 19
20 6z m4688 -13 c-3 -7 -24 -28 -49 -46 -24 -18 -86 -65 -137 -105 -141 -108
-185 -139 -327 -225 -258 -157 -387 -218 -680 -318 -71 -25 -150 -47 -175 -50
-25 -3 -70 -14 -101 -25 -37 -14 -74 -19 -110 -17 l-54 4 39 18 c21 9 66 22
100 28 34 6 73 17 89 25 15 7 51 18 80 23 28 6 68 16 87 24 19 7 69 26 110 41
132 49 283 116 362 161 43 24 79 44 81 44 22 0 337 208 507 336 52 39 104 76
115 82 27 16 68 15 63 0z m-4463 -12 c18 -13 14 -16 -45 -46 -57 -29 -149 -95
-349 -250 -32 -25 -87 -67 -122 -94 -35 -27 -95 -77 -134 -111 -38 -34 -127
-109 -196 -166 -69 -57 -164 -136 -211 -176 -47 -39 -126 -102 -175 -140 -294
-223 -742 -600 -790 -666 -13 -17 -30 -55 -39 -86 -25 -86 -29 -200 -27 -856
1 -148 1 -288 0 -310 0 -22 6 -54 13 -72 8 -18 11 -36 7 -40 -10 -9 -25 14
-32 47 -3 14 -10 45 -15 70 -5 25 -10 92 -11 150 -1 179 12 972 17 1027 10
100 49 138 565 553 58 47 188 153 288 235 101 83 198 161 215 175 18 14 114
93 215 175 101 83 201 164 222 180 21 17 79 64 130 105 50 41 132 109 182 150
179 146 246 180 292 146z m-275 -21 c-7 -8 -17 -15 -23 -15 -5 0 -2 9 8 20 21
23 35 19 15 -5z m1163 -19 c23 -18 21 -28 -5 -24 -13 2 -24 11 -26 21 -4 20 6
21 31 3z m-722 -62 l22 -24 -23 0 c-26 0 -60 26 -60 46 0 18 35 6 61 -22z
m7507 -102 c2 -12 -1 -22 -7 -22 -13 0 -32 35 -24 44 12 12 28 0 31 -22z
m-7303 -62 c3 -5 -1 -10 -9 -10 -9 0 -16 5 -16 10 0 6 4 10 9 10 6 0 13 -4 16
-10z m1009 4 c9 -3 16 -10 16 -14 0 -10 -49 0 -56 11 -6 10 17 12 40 3z
m-4181 -40 c42 -3 77 -10 77 -14 0 -11 -68 -29 -156 -41 -99 -13 -112 -24 -95
-79 6 -22 14 -40 17 -40 3 0 14 10 23 21 12 15 23 20 38 15 17 -6 21 -15 22
-54 0 -26 2 -63 3 -82 2 -29 -1 -36 -17 -38 -16 -2 -23 8 -39 58 -31 101 -48
73 -45 -75 1 -49 -3 -209 -10 -355 -6 -146 -14 -409 -16 -585 -3 -176 -10
-376 -16 -445 -5 -69 -12 -330 -14 -580 -3 -250 -10 -530 -16 -622 -6 -92 -9
-182 -5 -200 3 -18 2 -46 -3 -63 -9 -28 -9 -29 -11 -5 -4 71 -1 1937 3 2010 3
47 8 276 12 510 7 457 17 643 37 667 9 11 26 14 73 9 33 -3 95 -8 138 -12z
m3242 -4 c20 -23 17 -24 -19 -10 -14 5 -26 14 -26 20 0 17 26 11 45 -10z
m1005 10 c8 -5 11 -10 5 -10 -5 0 -17 5 -25 10 -8 5 -10 10 -5 10 6 0 17 -5
25 -10z m-2835 -30 c-3 -5 -17 -10 -31 -10 -14 0 -22 4 -19 10 3 6 17 10 31
10 14 0 22 -4 19 -10z m3087 -12 c40 -15 22 -31 -28 -25 -45 5 -78 23 -69 38
6 9 55 3 97 -13z m-1187 -18 c7 -11 -6 -13 -29 -4 -9 3 -16 13 -16 20 0 11 4
12 19 4 11 -5 23 -15 26 -20z m35 -31 c0 -6 -4 -7 -10 -4 -5 3 -10 11 -10 16
0 6 5 7 10 4 6 -3 10 -11 10 -16z m171 -85 c12 -14 11 -16 -5 -13 -11 2 -21
10 -24 17 -5 17 13 15 29 -4z m174 -84 c3 -5 -1 -10 -9 -10 -8 0 -18 5 -21 10
-3 6 1 10 9 10 8 0 18 -4 21 -10z m95 -40 c12 -8 11 -10 -7 -10 -13 0 -23 5
-23 10 0 13 11 13 30 0z m94 -36 c9 -3 14 -10 11 -14 -6 -10 -45 -1 -45 11 0
10 12 11 34 3z m266 -93 c0 -5 -6 -11 -12 -14 -18 -6 -39 3 -32 14 7 12 44 12
44 0z m1450 -51 c12 -7 7 -12 -20 -23 -38 -16 -270 -30 -270 -17 0 10 45 18
158 29 46 5 86 11 89 15 9 9 26 7 43 -4z m-3379 -50 c6 0 7 -4 4 -10 -3 -5
-27 -10 -53 -9 l-47 1 30 13 c17 8 36 12 43 10 8 -3 18 -5 23 -5z m2809 -14
c0 -9 -50 -12 -62 -5 -8 6 1 9 25 9 20 0 37 -2 37 -4z m-3536 -28 c-2 -7 -21
-24 -40 -38 -20 -14 -61 -46 -93 -73 -98 -83 -104 -87 -109 -82 -8 8 45 61 92
92 23 15 46 33 52 40 18 20 86 73 95 73 5 0 6 -6 3 -12z m5356 -33 c7 -8 14
-44 15 -80 2 -35 6 -68 8 -72 8 -13 -12 -243 -23 -263 -11 -21 -65 -31 -102
-18 -46 16 -64 127 -51 313 l8 110 35 12 c49 17 95 16 110 -2z m-2877 -22 c8
-10 19 -31 22 -46 4 -16 19 -34 35 -42 31 -16 41 -34 34 -62 -3 -10 2 -38 11
-62 18 -52 20 -162 3 -179 -24 -24 -46 -13 -68 35 -12 27 -31 59 -41 72 -12
14 -19 40 -19 65 0 23 -6 50 -14 61 -7 11 -16 48 -19 82 -5 49 -3 65 9 77 20
20 27 20 47 -1z m1915 5 c7 -7 12 -24 12 -39 0 -14 5 -40 11 -58 9 -24 7 -54
-6 -131 -13 -83 -14 -106 -4 -135 12 -32 11 -37 -8 -56 -13 -14 -35 -22 -59
-23 -36 -1 -39 2 -51 37 -7 20 -22 50 -34 67 -21 28 -21 32 -9 102 9 55 9 84
1 113 -18 64 -14 102 11 119 27 19 119 21 136 4z m-1688 -28 c11 -11 20 -24
20 -28 0 -4 -20 -28 -45 -52 -51 -50 -58 -48 -77 23 -12 45 -11 50 7 63 27 20
72 17 95 -6z m747 -13 c5 -12 8 -85 6 -161 -4 -153 -12 -176 -63 -176 -40 0
-118 65 -130 109 -12 45 -12 49 1 112 23 106 154 188 186 116z m192 -19 c46
-41 92 -128 84 -159 -3 -11 -14 -26 -24 -32 -11 -7 -19 -23 -19 -40 0 -41 -15
-63 -64 -92 -41 -24 -90 -33 -99 -17 -3 4 -8 78 -11 165 -5 129 -3 163 9 187
26 49 60 46 124 -12z m920 21 c27 -27 31 -38 31 -84 0 -50 -4 -58 -45 -105
-25 -28 -45 -56 -45 -64 0 -7 11 -23 25 -36 29 -27 29 -57 2 -74 -15 -9 -22
-6 -41 16 -33 37 -42 106 -19 152 16 35 16 38 -1 67 -20 33 -16 81 10 131 19
36 45 35 83 -3z m1645 -42 c16 -50 16 -66 6 -125 -6 -37 -12 -97 -12 -134 l0
-68 -48 0 c-31 0 -54 6 -64 16 -32 31 -10 66 35 57 40 -8 37 8 -14 65 l-43 48
2 80 c1 43 2 82 3 87 2 12 24 8 42 -9 22 -20 39 -11 39 21 0 23 19 39 31 26 3
-3 14 -32 23 -64z m-244 50 c0 -22 -26 -51 -38 -43 -7 4 -12 18 -12 32 0 19 5
24 25 24 14 0 25 -6 25 -13z m400 -3 c0 -8 -4 -12 -10 -9 -5 3 -10 10 -10 16
0 5 5 9 10 9 6 0 10 -7 10 -16z m-4651 -178 c44 -105 41 -113 -22 -76 -29 17
-36 28 -42 65 -15 106 22 112 64 11z m-2170 -109 c-19 -17 -61 -55 -94 -82
-172 -143 -302 -275 -342 -349 -6 -10 -13 -14 -16 -9 -3 5 7 37 22 69 22 46
50 80 119 143 50 46 103 91 119 101 15 9 44 33 63 52 49 50 129 108 147 108
11 0 5 -11 -18 -33z m9501 -424 c0 -46 -23 -70 -41 -42 -8 13 -4 75 8 109 9
28 33 -21 33 -67z m-5872 -176 c-4 -32 -34 -34 -42 -2 -9 35 0 48 25 34 13 -6
19 -18 17 -32z m647 3 c0 -16 -6 -26 -18 -28 -19 -4 -32 20 -23 44 9 25 41 13
41 -16z m-543 -32 c7 -18 -2 -39 -13 -32 -12 7 -12 44 0 44 5 0 11 -6 13 -12z
m-115 -118 c18 -35 15 -87 -6 -140 -13 -31 -24 -45 -37 -45 -12 0 -17 5 -14
15 8 27 -1 144 -12 158 -8 9 -6 16 8 27 26 20 46 15 61 -15z m-2089 -107 c-10
-2 -26 -2 -35 0 -10 3 -2 5 17 5 19 0 27 -2 18 -5z m3840 -75 c-5 -15 -48 -24
-48 -10 0 14 12 22 33 22 10 0 17 -5 15 -12z m-2053 -159 c10 -15 -1 -23 -20
-15 -9 3 -13 10 -10 16 8 13 22 13 30 -1z m-735 -709 c18 -6 7 -8 -40 -8 -45
-1 -59 2 -45 8 25 11 52 11 85 0z m78 -7 c-10 -2 -26 -2 -35 0 -10 3 -2 5 17
5 19 0 27 -2 18 -5z m-3944 -774 c-5 -8 -10 -6 -16 5 -5 9 -6 21 -2 27 5 8 10
6 16 -5 5 -9 6 -21 2 -27z m651 -915 c0 -22 -5 -29 -20 -29 -23 0 -32 30 -14
51 18 22 34 11 34 -22z m8227 6 c24 -5 55 -12 69 -15 35 -6 116 -79 139 -126
28 -53 28 -175 0 -228 -28 -56 -115 -129 -174 -146 -105 -32 -182 -15 -259 55
-103 94 -125 201 -66 318 40 77 90 118 171 137 68 17 69 17 120 5z m-6468 -19
c3 -5 -6 -12 -21 -16 -41 -10 -114 -61 -146 -100 -57 -72 -67 -146 -31 -234
26 -63 123 -141 175 -141 19 0 21 4 15 35 -6 31 -4 36 19 45 30 11 31 24 5 75
-24 46 -18 73 17 81 33 9 89 -18 98 -46 11 -35 -4 -90 -32 -116 -22 -21 -25
-44 -4 -44 23 0 101 76 124 123 53 104 25 208 -80 289 -38 29 -51 44 -43 52
30 30 155 -87 189 -179 28 -75 23 -122 -25 -201 -59 -100 -133 -148 -226 -145
-46 1 -61 -3 -84 -22 -25 -22 -26 -25 -12 -48 14 -21 28 -100 32 -178 2 -41
-20 -34 -49 14 -24 42 -26 53 -21 118 3 40 5 81 6 91 1 11 -25 46 -59 80 -126
129 -135 274 -24 396 54 61 158 102 177 71z m3216 0 c0 -5 -14 -14 -31 -21
-54 -23 -136 -110 -149 -159 -13 -49 -5 -131 16 -172 27 -53 109 -112 174
-124 46 -8 118 22 165 69 45 45 45 59 0 50 -21 -4 -41 -2 -49 5 -10 8 -18 2
-37 -26 -42 -66 -90 -47 -54 20 21 40 17 69 -13 82 -27 12 -27 17 -2 40 14 13
23 15 32 7 7 -6 26 -12 43 -14 21 -2 34 -11 43 -31 16 -32 28 -28 37 13 8 35
16 37 33 10 7 -11 16 -20 21 -20 16 0 32 66 25 96 -14 58 -82 133 -149 164
l-30 14 28 4 c69 9 170 -76 207 -175 25 -68 25 -88 -2 -157 -59 -155 -212
-231 -361 -180 -99 34 -187 150 -187 248 0 126 111 264 213 266 15 0 27 -4 27
-9z m-4045 -34 c-49 -39 -101 -92 -123 -125 -22 -34 -23 -159 -1 -193 32 -48
94 -99 147 -120 l55 -23 36 21 c20 11 48 23 62 26 38 9 132 114 149 165 12 38
11 49 -5 100 -18 57 -50 97 -125 155 l-35 27 31 0 c42 0 126 -75 160 -141 101
-199 -122 -445 -339 -373 -97 32 -188 156 -189 258 -1 107 110 255 192 255 23
0 23 -2 -15 -32z m1545 24 c0 -5 -12 -17 -27 -26 -100 -66 -160 -163 -149
-242 15 -112 119 -213 218 -213 61 0 166 68 203 130 39 66 47 88 47 126 1 60
-49 141 -113 183 -49 32 -56 51 -19 51 30 0 127 -96 156 -156 21 -44 26 -64
22 -107 -8 -94 -72 -190 -163 -242 -31 -17 -61 -24 -131 -28 l-92 -6 -73 74
c-91 91 -102 113 -103 195 0 53 5 74 24 105 41 69 92 126 129 145 39 21 71 26
71 11z m873 2 c4 -3 -19 -22 -52 -42 -132 -82 -174 -195 -117 -316 26 -56 44
-73 113 -110 72 -38 112 -31 83 15 -7 11 -2 22 17 42 27 29 24 44 -13 58 -32
13 -31 50 1 88 l25 30 -25 30 c-27 32 -31 61 -15 93 15 27 39 24 50 -7 6 -15
19 -38 30 -52 24 -30 26 -55 5 -72 -31 -26 -5 -79 36 -72 9 2 20 -2 23 -7 11
-17 -19 -76 -48 -94 -26 -17 -36 -47 -15 -47 6 0 20 5 32 11 70 36 127 136
127 224 0 68 -42 134 -119 187 -52 37 -53 38 -25 38 31 0 106 -42 136 -76 90
-104 86 -248 -9 -354 -67 -75 -106 -90 -213 -83 -127 9 -190 47 -235 145 -62
134 -7 286 130 356 41 22 67 27 78 15z m746 3 c-2 -3 -31 -22 -63 -44 -32 -22
-73 -61 -92 -88 -29 -40 -34 -56 -34 -103 0 -31 5 -72 10 -92 16 -55 81 -123
145 -150 55 -23 63 -39 19 -39 -63 0 -158 81 -196 168 -61 137 52 350 186 352
16 0 27 -2 25 -4z m179 -15 c124 -64 177 -220 118 -346 -24 -53 -83 -112 -137
-141 -36 -18 -106 -21 -122 -5 -8 8 -7 11 1 11 21 0 13 26 -23 67 -48 56 -47
90 3 143 47 48 75 51 101 10 l18 -30 25 19 c13 11 40 21 58 23 27 2 37 9 44
30 20 56 -28 137 -124 210 -43 33 -19 38 38 9z m1387 -13 c-47 -38 -101 -93
-120 -122 -11 -16 -13 -43 -8 -108 6 -84 7 -88 49 -136 29 -33 63 -58 104 -76
l61 -28 57 30 c31 16 59 38 61 47 3 18 -7 18 -81 0 -18 -5 -33 1 -57 21 -31
26 -32 29 -25 83 11 97 42 123 120 101 34 -10 47 -10 58 -1 11 9 20 9 35 2 39
-21 51 -14 51 32 0 54 -24 93 -89 142 -54 41 -50 60 7 31 89 -46 152 -146 152
-241 0 -105 -71 -204 -181 -255 -52 -23 -84 -24 -162 -6 -75 18 -132 58 -168
121 -77 136 -49 263 80 363 24 17 54 32 69 32 26 0 26 -1 -13 -32z m838 26 c4
-4 -15 -22 -41 -40 -26 -19 -64 -54 -84 -80 -37 -46 -38 -48 -38 -134 0 -84 1
-89 35 -133 19 -25 62 -62 96 -82 59 -37 62 -37 102 -24 101 31 160 79 196
159 49 109 6 232 -107 302 -43 27 -28 45 20 25 50 -21 105 -73 139 -131 70
-123 8 -295 -132 -367 -38 -19 -48 -20 -136 -10 -134 14 -190 55 -244 176 -48
109 14 263 131 325 38 21 53 24 63 14z m802 -37 c-68 -50 -114 -100 -134 -147
l-21 -49 22 -86 c20 -82 24 -88 69 -121 62 -45 135 -77 162 -70 12 3 48 21 79
41 81 51 129 131 136 226 4 63 2 73 -24 112 -15 23 -37 53 -48 66 l-21 25 35
-21 c42 -25 119 -135 122 -172 4 -81 -19 -146 -77 -210 -65 -71 -97 -85 -196
-85 -81 1 -90 3 -145 37 -32 20 -67 49 -76 64 -10 15 -27 41 -40 56 -18 22
-23 44 -26 102 -4 66 -1 80 22 119 47 80 117 135 171 135 17 0 15 -3 -10 -22z
m1966 -33 c62 -31 129 -143 129 -215 0 -50 -24 -112 -67 -171 -41 -57 -120
-98 -202 -105 -107 -10 -237 75 -262 172 -6 22 -14 54 -18 72 -19 70 27 189
90 236 49 36 50 12 1 -41 -63 -69 -82 -121 -71 -192 10 -64 46 -120 107 -167
52 -40 100 -50 172 -35 47 10 62 19 103 62 29 33 47 60 47 76 0 24 -1 24 -28
10 -29 -15 -29 -15 -50 28 -29 57 -28 73 7 90 32 17 51 6 51 -29 0 -12 6 -29
13 -40 13 -17 15 -17 30 6 37 51 7 138 -74 219 -53 53 -47 59 22 24z m-2658
-47 c22 -54 21 -60 -3 -82 -19 -17 -22 -17 -36 -3 -21 21 -31 103 -15 122 18
22 34 11 54 -37z m-5528 8 c0 -26 -55 -34 -74 -11 -19 23 -3 37 37 34 29 -2
37 -7 37 -23z m735 -5 c0 -11 -13 -34 -30 -52 -23 -26 -29 -29 -30 -15 0 16
46 87 56 87 2 0 4 -9 4 -20z m3230 -31 c0 -10 -4 -21 -10 -24 -5 -3 -10 3 -10
14 0 10 -3 28 -7 38 -6 16 -5 16 10 4 9 -7 17 -22 17 -32z m-2526 22 c3 -5 21
-9 40 -8 51 1 86 -26 86 -68 0 -21 -6 -37 -17 -43 -10 -6 -14 -16 -9 -27 6
-17 8 -17 25 -1 21 19 48 12 56 -15 7 -20 -40 -109 -58 -109 -5 0 -25 -12 -44
-26 l-34 -26 -22 20 c-12 11 -39 23 -59 27 -24 5 -38 13 -38 22 0 17 105 123
123 123 32 1 39 16 23 49 -9 17 -22 31 -29 31 -12 1 -67 45 -67 55 0 8 18 6
24 -4z m3231 -1 c3 -5 -1 -10 -9 -10 -9 0 -16 5 -16 10 0 6 4 10 9 10 6 0 13
-4 16 -10z m80 -1 c11 -16 -2 -22 -32 -15 -21 6 -24 9 -12 17 19 12 36 11 44
-2z m1595 -14 c17 -20 4 -35 -30 -35 -32 0 -45 13 -36 35 7 19 50 19 66 0z
m-6304 -106 c13 -12 24 -30 24 -40 0 -9 7 -22 15 -29 19 -16 19 -39 0 -46 -8
-3 -17 -14 -20 -25 -14 -43 -134 -47 -159 -6 -9 15 -5 23 21 47 58 52 67 98
17 86 -27 -7 -33 11 -11 33 18 19 84 7 113 -20z m5498 -9 c63 -47 70 -63 49
-104 -24 -46 -90 -98 -110 -87 -16 8 -52 102 -53 135 0 17 57 86 70 86 3 0 22
-14 44 -30z m2381 -12 c14 -6 25 -15 25 -19 0 -13 -61 -59 -71 -53 -13 8 -11
58 3 72 15 15 12 15 43 0z m-1577 -10 c15 -15 16 -72 2 -99 -13 -23 -46 -25
-54 -3 -8 21 -8 99 1 107 10 11 38 8 51 -5z m1712 -18 c0 -36 -38 -57 -71 -40
-26 14 -24 25 7 49 40 31 64 28 64 -9z m-7626 -217 c3 -10 8 -45 12 -78 3 -33
12 -75 20 -92 15 -37 9 -41 -43 -22 l-31 10 5 87 c2 48 6 93 8 100 6 18 23 15
29 -5z m-1473 -228 c-2 -126 -6 -311 -10 -411 -3 -100 -5 -188 -3 -197 5 -27
32 -28 70 -2 20 14 43 25 52 25 16 0 -17 -26 -65 -50 -20 -10 -41 -36 -62 -78
-38 -73 -43 -139 -17 -200 14 -32 16 -80 14 -344 -1 -169 -5 -320 -9 -335 l-8
-28 -11 27 c-29 71 -36 212 -36 748 -1 658 4 1027 16 1058 6 19 14 23 40 20
l33 -3 -4 -230z m2215 194 c4 -6 7 -30 7 -52 0 -23 6 -56 13 -74 19 -44 19
-45 -23 -37 -53 9 -60 19 -41 52 10 16 15 38 11 50 -11 44 14 91 33 61z m-182
-26 c2 -16 8 -46 11 -68 4 -22 13 -48 22 -57 13 -15 12 -18 -14 -31 -37 -20
-96 -83 -118 -126 -13 -25 -17 -56 -16 -115 1 -67 6 -87 26 -118 26 -40 74
-80 129 -107 27 -14 32 -21 23 -30 -9 -9 -12 -124 -13 -439 l-1 -427 -24 -7
c-13 -4 -36 -10 -50 -12 -37 -8 -116 -71 -145 -118 -72 -114 -47 -242 63 -320
80 -58 167 -56 245 7 24 19 53 40 65 46 13 7 25 20 28 29 8 24 40 60 54 60 7
0 9 -10 5 -27 -12 -51 -24 -76 -55 -114 -17 -22 -26 -39 -21 -39 19 0 72 52
108 106 35 53 36 57 32 132 -3 70 -7 82 -42 132 -46 65 -81 97 -118 105 -15 4
-31 12 -36 18 -6 7 -12 82 -14 167 -4 129 -8 162 -25 198 l-20 43 20 62 c19
54 21 83 19 230 l-1 167 24 0 c13 0 27 -4 30 -10 8 -13 52 -13 60 -1 3 5 19
12 35 16 20 5 44 24 73 60 23 30 48 54 55 54 10 1 12 -34 10 -156 l-3 -158
-61 -6 c-70 -7 -126 -40 -165 -99 -13 -19 -34 -48 -47 -65 -21 -25 -24 -37
-20 -90 4 -51 10 -69 46 -119 57 -80 112 -116 178 -116 56 0 95 22 166 95 48
49 65 81 74 132 11 70 -22 145 -98 221 -34 34 -3 27 44 -9 94 -75 123 -192 74
-301 -25 -57 -115 -151 -161 -168 -14 -5 -23 -14 -20 -20 9 -15 23 -12 82 16
66 31 129 94 166 167 36 72 38 167 5 223 -26 42 -91 112 -126 134 l-23 15 -2
315 c-1 227 1 321 10 335 11 19 12 19 23 -10 7 -16 16 -84 22 -150 7 -86 15
-127 28 -145 9 -14 20 -34 24 -45 8 -24 109 -105 130 -105 28 0 27 21 -1 31
-47 16 -127 113 -134 162 -10 64 8 162 36 206 29 47 109 111 138 111 18 0 16
-5 -14 -32 -56 -51 -92 -115 -86 -152 3 -17 0 -50 -6 -74 -10 -36 -8 -47 7
-75 32 -55 79 -99 136 -125 l55 -25 -35 -10 c-19 -5 -41 -11 -49 -13 -9 -3
-11 -12 -7 -29 3 -13 7 -109 7 -213 1 -104 5 -196 10 -203 12 -18 51 26 82 91
19 38 22 64 23 173 0 70 4 130 7 133 3 3 21 0 40 -7 33 -12 38 -10 89 24 30
20 60 43 67 51 8 9 20 16 27 16 11 0 14 -22 14 -102 0 -57 -4 -108 -8 -114 -4
-7 -25 -17 -47 -23 -67 -18 -130 -73 -198 -176 -33 -48 -34 -76 -6 -152 28
-73 37 -87 95 -134 41 -35 52 -39 101 -39 63 0 110 19 137 57 l19 26 -26 -7
c-14 -3 -33 -3 -41 0 -20 8 -21 44 -1 70 21 27 18 39 -10 52 -54 25 -75 12
-75 -48 0 -16 -5 -32 -12 -36 -15 -10 -39 26 -33 47 4 10 7 55 7 100 1 105 15
121 91 117 38 -2 52 -7 52 -18 0 -11 -13 -16 -43 -18 -32 -2 -46 -9 -59 -29
-16 -24 -16 -26 2 -39 10 -8 35 -14 55 -14 40 0 60 -14 60 -42 0 -11 7 -18 19
-18 38 0 51 -11 51 -46 0 -19 3 -34 8 -34 12 0 60 95 67 134 14 72 43 20 31
-55 -16 -97 -99 -200 -174 -214 -62 -11 -62 -11 -62 -194 0 -175 -4 -211 -25
-211 -13 0 -25 -30 -25 -67 0 -15 7 -23 23 -25 22 -3 22 -5 25 -177 2 -119 -1
-178 -9 -187 -9 -12 -93 -14 -476 -14 -394 0 -469 -2 -500 -15 -126 -53 -187
-188 -134 -294 26 -50 81 -98 128 -110 21 -6 211 -15 423 -20 212 -6 398 -14
415 -19 l30 -8 -25 -7 c-43 -12 -704 -25 -1416 -26 -712 -2 -768 1 -916 44
-83 24 -118 55 -64 55 39 0 40 17 2 64 -20 23 -36 46 -36 49 0 3 -17 43 -38
89 -52 111 -68 176 -48 192 8 6 16 20 18 31 2 12 13 21 27 23 34 5 132 93 175
156 35 50 76 160 76 203 0 43 -32 147 -60 192 -16 25 -61 71 -99 101 -71 56
-83 78 -56 100 13 11 20 9 38 -9 13 -11 27 -21 31 -21 4 0 24 16 43 35 38 38
63 44 83 20 15 -18 57 -19 97 -4 22 8 24 12 13 19 -8 6 -29 10 -46 10 -36 0
-91 41 -144 106 -41 52 -53 74 -84 154 -25 63 -25 65 -7 80 10 8 28 35 38 61
30 68 165 162 209 145 15 -6 13 -10 -17 -27 -46 -28 -95 -75 -130 -126 -24
-34 -29 -52 -29 -98 0 -67 16 -108 61 -160 36 -40 118 -85 157 -85 30 0 79 23
117 56 l30 25 -47 -6 c-43 -6 -48 -4 -48 14 0 44 -10 52 -56 45 -40 -6 -44 -5
-44 15 0 22 26 81 36 81 3 0 14 -5 26 -11 16 -9 24 -7 43 11 30 28 54 23 77
-15 22 -36 38 -73 38 -86 0 -13 17 -11 27 4 12 20 41 109 48 149 7 41 -13 91
-45 108 -19 10 -28 40 -12 40 17 -1 32 -18 50 -60 11 -25 27 -51 36 -59 21
-18 21 -106 0 -157 -27 -64 -73 -123 -112 -143 -20 -11 -45 -29 -54 -40 -10
-12 -27 -21 -39 -21 -12 0 -19 -5 -16 -12 2 -8 23 -13 55 -14 71 -1 232 -74
232 -106 0 -4 -8 -8 -17 -8 -77 0 -162 -64 -204 -154 -51 -108 -34 -211 48
-293 61 -61 108 -80 181 -73 52 5 67 11 95 38 42 41 71 44 56 6 -11 -31 -7
-38 18 -30 66 23 153 163 153 246 0 44 -38 142 -67 172 -14 15 -45 40 -67 55
-23 15 -55 44 -72 63 -18 20 -75 58 -133 88 -56 30 -101 60 -101 68 0 7 9 19
21 26 11 7 38 43 60 80 35 60 39 73 39 136 0 57 -5 79 -30 129 -17 34 -37 67
-45 73 -8 7 -15 18 -15 24 0 6 36 50 80 99 52 57 80 96 80 111 0 20 6 24 41
29 29 4 52 16 78 40 138 134 150 152 158 231 7 75 24 87 43 30 16 -49 6 -90
-39 -160 -55 -85 -132 -154 -171 -154 -21 0 -30 -4 -28 -12 7 -20 46 -21 86
-3 72 32 87 43 120 91 60 88 69 76 71 -98 1 -84 -3 -136 -10 -144 -6 -8 -26
-14 -44 -14 -76 0 -185 -82 -232 -173 -22 -43 -24 -57 -17 -116 3 -36 12 -80
19 -97 26 -63 170 -152 225 -139 96 24 219 166 236 274 l7 42 21 -21 c32 -29
36 -26 36 28 0 56 -27 102 -88 147 -23 17 -46 40 -52 53 -11 25 -16 774 -5
792 10 16 40 11 63 -10 15 -15 29 -19 47 -14 15 4 25 2 25 -5 0 -22 18 -10 25
17 8 33 32 72 44 72 5 0 12 -12 15 -27z m379 -45 c3 -13 9 -52 13 -87 6 -52 4
-63 -7 -59 -30 10 -49 62 -42 116 6 54 26 71 36 30z m-1147 -129 c-75 -69
-106 -129 -106 -209 0 -97 34 -152 125 -203 44 -25 56 -47 26 -47 -11 0 -51
-27 -90 -60 -38 -33 -72 -57 -74 -53 -8 13 43 92 64 98 25 8 24 27 -2 51 -12
10 -39 45 -60 77 -34 52 -39 65 -39 118 0 94 30 165 92 220 29 26 62 55 73 66
16 16 23 17 34 7 12 -11 5 -21 -43 -65z m-548 3 c59 -58 102 -140 102 -196 0
-76 -77 -189 -163 -239 -35 -21 -59 -26 -123 -28 l-81 -3 -58 45 c-74 56 -114
129 -115 207 0 63 15 61 23 -3 8 -54 36 -112 69 -140 77 -67 117 -81 183 -64
82 21 82 58 1 80 -59 15 -83 34 -107 81 -14 28 -19 52 -16 75 11 64 73 123
129 123 33 0 85 -35 108 -72 22 -36 27 -107 9 -125 -6 -6 -9 -23 -7 -39 2 -21
9 -30 25 -32 17 -3 28 8 52 50 33 57 41 130 19 171 -23 45 -79 111 -109 129
-27 16 -32 38 -9 38 5 0 35 -26 68 -58z m3127 43 c85 -25 131 -65 171 -148 43
-89 43 -124 1 -212 -45 -92 -103 -141 -200 -167 -69 -19 -71 -19 -96 0 -14 10
-43 22 -64 26 -58 11 -150 106 -171 177 -20 64 -20 64 -1 126 21 70 80 126
180 174 91 43 107 45 180 24z m790 -5 c92 -24 133 -52 179 -125 53 -82 62
-121 42 -186 -26 -87 -81 -156 -156 -198 -36 -20 -84 -42 -108 -49 -42 -13
-44 -12 -71 17 -16 17 -39 31 -51 31 -35 0 -75 27 -123 81 -89 101 -85 227 11
328 26 28 59 53 75 57 37 9 34 -8 -8 -40 -19 -15 -46 -47 -61 -72 -23 -39 -26
-53 -22 -118 3 -65 7 -79 34 -112 17 -21 52 -53 78 -71 39 -26 58 -33 97 -33
58 0 119 23 119 44 0 17 -14 22 -90 31 -99 13 -111 33 -57 95 73 86 89 113 82
146 -5 27 -2 32 16 37 27 7 59 -8 59 -29 0 -18 -61 -113 -90 -139 -29 -26 -26
-55 5 -55 16 0 41 17 74 50 55 55 54 55 80 38 52 -32 67 32 27 117 -44 97
-124 142 -227 131 -33 -3 -59 -3 -59 -1 0 4 60 45 66 45 0 0 36 -9 79 -20z
m818 4 c84 -22 97 -30 156 -100 95 -114 90 -211 -15 -336 -40 -47 -65 -69 -87
-74 -18 -3 -49 -15 -69 -25 -21 -11 -51 -19 -68 -19 -25 0 -30 -4 -30 -24 0
-14 5 -28 10 -31 22 -14 69 -7 95 14 15 11 38 21 50 21 12 0 30 9 40 20 30 33
36 23 34 -47 -1 -38 1 -78 5 -90 6 -20 4 -23 -19 -23 -67 0 -164 -74 -201
-154 -19 -42 -22 -60 -17 -120 3 -39 12 -83 19 -97 20 -40 98 -104 142 -117
61 -18 81 -15 139 25 62 42 71 69 21 59 -98 -20 -98 -20 -134 15 -35 34 -43
62 -22 75 6 4 19 -4 30 -19 24 -33 63 -36 78 -7 6 11 14 55 18 98 6 61 10 77
24 80 12 2 19 -5 23 -25 9 -41 19 -56 49 -73 25 -14 28 -13 42 4 34 46 10 117
-65 195 l-53 54 44 -6 c36 -5 51 -14 89 -57 29 -32 55 -75 69 -113 22 -61 23
-63 6 -112 -10 -27 -33 -73 -52 -102 -37 -57 -125 -133 -154 -133 -10 0 -23
-6 -29 -14 -10 -11 -8 -16 8 -21 23 -7 61 2 61 15 0 4 11 11 25 14 51 13 175
154 175 199 0 9 9 34 21 56 20 39 19 81 -2 81 -5 0 -9 18 -9 40 0 29 4 40 15
40 20 0 29 41 21 103 -8 58 -8 61 -2 132 2 28 5 56 5 63 2 22 40 14 45 -10 3
-13 8 -203 10 -422 3 -256 9 -403 16 -410 18 -18 11 -23 -37 -30 -65 -8 -103
-34 -155 -102 l-43 -58 3 -100 3 -101 42 -44 c69 -72 122 -101 184 -101 47 0
54 3 67 28 8 15 23 36 35 46 27 24 26 30 -3 44 -16 7 -26 21 -28 39 l-4 28
-12 -27 c-15 -36 -44 -36 -72 -1 -29 37 -22 63 20 77 33 10 36 15 45 70 11 61
29 84 59 73 13 -5 16 -18 14 -59 -1 -42 3 -61 23 -90 13 -21 30 -38 37 -38 26
0 45 70 39 143 -4 39 -2 67 4 67 18 0 8 27 -24 62 -27 30 -39 36 -75 36 -23 0
-52 4 -63 7 -19 6 -19 8 -5 24 13 14 17 73 26 357 6 186 11 368 13 404 1 36
-2 75 -6 88 -8 21 -6 22 35 23 63 2 93 11 124 37 23 21 24 26 12 38 -8 8 -37
23 -64 32 -55 20 -50 3 -46 167 2 56 5 75 16 75 16 0 26 -21 26 -53 0 -30 33
-157 41 -157 3 0 16 27 28 60 12 32 26 62 32 66 5 3 22 -2 36 -11 25 -17 27
-17 40 1 27 37 14 84 -41 157 -30 40 -33 47 -17 47 27 0 52 -25 99 -101 50
-79 55 -125 18 -197 -42 -82 -82 -128 -132 -153 -44 -22 -49 -27 -46 -54 2
-16 6 -57 9 -90 3 -38 11 -64 21 -72 16 -13 15 -15 -3 -26 -34 -21 -95 -91
-115 -133 -22 -45 -25 -99 -9 -173 9 -42 20 -59 61 -96 102 -91 202 -82 297
27 17 20 28 39 23 42 -5 3 -14 -6 -21 -20 -9 -21 -17 -25 -43 -22 -28 3 -36
10 -60 61 -16 31 -34 57 -40 57 -20 0 -48 -32 -48 -57 0 -14 -6 -23 -15 -23
-11 0 -15 12 -14 48 2 76 11 97 44 100 20 2 43 18 68 44 29 31 41 38 49 30 9
-9 6 -19 -14 -39 -32 -35 -47 -64 -41 -81 5 -12 86 -72 98 -72 3 0 10 11 15
25 6 16 14 23 25 19 8 -3 15 -10 15 -15 0 -17 29 -9 40 10 27 51 8 136 -47
209 -14 18 -22 36 -19 39 20 21 140 -125 152 -184 4 -23 0 -42 -14 -65 -11
-18 -22 -45 -26 -60 -9 -41 -101 -135 -157 -160 -49 -23 -58 -35 -39 -54 6 -6
12 -52 13 -102 1 -50 5 -94 9 -98 4 -3 23 7 43 25 63 55 72 38 24 -46 -30 -52
-31 -59 -26 -132 6 -92 29 -154 68 -182 19 -13 29 -29 29 -46 0 -14 11 -36 25
-48 21 -20 23 -28 15 -55 -18 -61 16 -84 98 -65 29 7 54 14 55 16 1 2 12 22
24 44 12 22 30 42 41 45 62 16 202 200 152 200 -5 0 -19 -17 -29 -39 -30 -57
-152 -151 -198 -151 -30 0 -104 20 -118 32 -5 4 9 8 30 8 123 0 285 157 285
275 0 35 12 46 26 24 4 -7 6 -38 5 -70 -2 -62 8 -78 33 -53 11 11 16 35 16 81
0 58 -4 72 -34 117 -19 28 -57 73 -85 99 -44 42 -56 48 -80 42 -27 -6 -29 -4
-35 32 -4 21 -2 136 3 255 9 202 11 220 33 251 28 41 109 113 138 122 11 3 20
13 20 21 0 9 11 14 30 14 24 0 30 4 30 21 0 11 -10 29 -21 38 l-22 17 42 22
41 22 0 -65 0 -64 -44 -19 c-30 -14 -62 -42 -100 -88 -70 -84 -84 -125 -68
-195 7 -28 12 -61 12 -73 0 -46 96 -137 169 -161 53 -17 135 25 192 99 l23 29
-25 -16 c-33 -21 -63 -23 -137 -7 -79 16 -97 37 -81 94 6 22 8 64 4 97 -5 40
-3 59 4 59 7 0 11 -28 11 -78 0 -54 5 -84 16 -100 28 -40 83 -22 147 48 43 48
56 45 83 -19 15 -34 16 -35 30 -17 17 23 18 105 3 159 -12 45 -7 56 17 36 56
-46 85 -159 49 -189 -8 -7 -19 -29 -25 -49 -6 -22 -33 -61 -71 -99 -33 -35
-58 -67 -54 -70 10 -11 75 31 105 67 16 20 39 45 50 57 11 12 20 31 20 43 0
12 6 34 14 49 18 35 22 76 12 133 -6 35 -4 56 7 80 16 35 17 172 2 252 -8 37
-2 44 24 28 10 -7 14 -57 17 -226 3 -120 6 -221 9 -225 2 -4 5 -89 6 -189 1
-199 -1 -206 -57 -217 -37 -7 -48 -17 -59 -54 -4 -13 -23 -48 -42 -76 -44 -66
-50 -106 -28 -196 15 -60 25 -78 56 -107 36 -32 123 -70 162 -71 60 -1 228
146 241 210 13 67 7 106 -24 151 -37 55 -37 63 0 56 17 -4 30 -4 30 -1 0 34
-100 108 -136 101 -46 -8 -49 2 -49 170 -1 87 -5 182 -10 212 -7 44 -6 53 6
49 8 -3 18 -24 22 -49 5 -24 10 -53 13 -65 2 -11 20 -41 39 -67 67 -87 177
-113 251 -59 106 77 171 200 154 292 -5 25 -7 46 -5 48 7 8 46 -20 61 -44 20
-30 14 -151 -8 -168 -7 -6 -25 -30 -40 -53 -15 -23 -48 -58 -73 -79 -51 -43
-55 -54 -21 -54 17 0 42 20 85 67 34 37 61 73 61 80 0 7 11 24 24 38 14 14 27
44 31 66 5 28 11 39 22 37 10 -2 19 7 23 23 9 32 73 125 112 163 29 28 30 30
12 43 -10 7 -21 13 -25 13 -3 0 -19 19 -35 43 -16 23 -32 44 -36 47 -4 3 -14
22 -22 42 -9 20 -20 39 -26 43 -12 7 -14 55 -2 55 5 0 23 -22 41 -49 17 -27
50 -70 73 -96 23 -26 47 -57 53 -68 7 -14 25 -25 53 -31 23 -5 42 -13 42 -18
0 -5 -15 -18 -34 -29 -45 -26 -100 -94 -116 -143 -35 -107 47 -255 156 -282
30 -8 31 -20 1 -28 -46 -11 -176 -97 -189 -124 -8 -17 -23 -28 -38 -30 -78 -8
-111 -25 -160 -82 -81 -94 -99 -177 -59 -271 44 -101 178 -170 261 -135 88 37
188 185 188 277 0 27 4 49 9 49 5 0 19 -17 31 -37 17 -29 23 -34 31 -22 21 33
9 62 -49 120 -56 55 -60 57 -99 52 -56 -7 -61 9 -18 53 29 29 58 42 148 71 62
19 124 41 139 49 14 8 31 14 38 14 36 0 150 133 150 176 0 10 9 27 20 39 13
14 25 47 31 86 6 35 17 78 26 94 13 24 18 77 23 270 4 132 8 241 8 243 1 2 6
1 11 -3 6 -3 11 -132 12 -313 1 -169 2 -329 2 -357 3 -125 -4 -301 -13 -315
-13 -21 -59 6 -66 39 -12 53 -11 53 -64 25 -27 -14 -50 -32 -50 -40 0 -8 -6
-14 -14 -14 -20 0 -27 -27 -10 -41 16 -13 2 -39 -21 -39 -8 0 -16 -6 -18 -12
-3 -7 -6 -3 -6 10 -1 31 -31 29 -64 -5 -15 -16 -36 -36 -48 -46 -15 -13 -19
-25 -14 -40 3 -12 10 -51 13 -87 4 -36 11 -71 15 -78 13 -19 27 -4 27 29 0 65
159 217 228 219 8 0 -16 -32 -51 -71 -78 -84 -110 -144 -115 -221 -4 -50 0
-66 36 -141 35 -74 45 -86 75 -96 19 -6 45 -23 57 -36 22 -23 30 -25 126 -25
102 0 102 0 151 36 98 75 134 124 159 217 30 113 -60 272 -189 335 -41 20 -46
26 -37 43 6 11 7 26 2 37 -14 28 17 1126 32 1151 6 9 11 10 19 2 11 -11 24
-265 31 -586 1 -71 8 -174 15 -227 9 -75 9 -102 0 -120 -6 -12 -14 -63 -17
-112 -3 -69 -9 -96 -22 -111 -23 -25 -15 -38 55 -90 66 -49 152 -141 163 -173
4 -14 14 -28 20 -30 17 -5 16 73 -2 101 -12 21 -20 111 -20 247 0 31 8 74 17
97 9 23 21 73 27 110 6 37 19 106 29 153 11 47 22 133 26 193 4 59 10 107 15
107 23 0 39 -780 20 -1030 -6 -91 -15 -214 -19 -273 l-7 -108 -90 -90 c-49
-50 -147 -142 -219 -205 -71 -62 -168 -147 -215 -189 -47 -42 -94 -78 -105
-80 -56 -13 -455 -21 -715 -14 -251 7 -393 15 -745 43 -27 2 -72 0 -98 -6 -69
-14 -82 2 -28 36 52 33 95 92 110 152 27 104 -51 228 -162 258 -31 9 -125 16
-232 20 -99 3 -216 10 -259 16 -65 10 -89 9 -140 -4 -91 -23 -232 -27 -250 -7
-10 13 -11 49 -5 181 4 91 8 275 8 409 1 269 -2 281 -59 281 -45 0 -51 -17
-49 -151 1 -68 -1 -190 -3 -272 -3 -81 -1 -150 3 -153 15 -9 11 -268 -4 -288
-13 -18 -59 -19 -1078 -17 -585 1 -1102 4 -1149 7 -101 6 -264 23 -303 30 -42
9 -23 21 42 29 33 4 67 12 75 18 15 11 14 16 -1 49 -13 27 -24 37 -40 38 -27
0 -29 12 -8 30 24 20 74 98 81 125 3 13 12 29 20 36 23 19 19 160 -5 190 -10
13 -21 33 -25 44 -9 29 -77 99 -126 130 -38 24 -41 29 -36 58 7 44 7 171 0
304 -8 137 -2 174 38 219 39 44 151 109 201 117 32 5 41 2 59 -19 14 -15 32
-24 50 -24 42 0 80 -23 126 -75 48 -54 82 -123 82 -165 0 -100 -106 -240 -207
-274 -77 -26 -83 -42 -20 -53 29 -4 42 -1 67 21 18 14 37 26 44 26 27 0 140
138 152 186 4 16 15 40 26 53 22 29 24 74 3 91 -8 7 -17 28 -21 47 -4 19 -16
45 -28 57 -11 13 -34 39 -51 59 -16 20 -35 37 -42 37 -7 0 -23 10 -37 23 -25
21 -25 24 -19 119 6 103 18 119 28 40 3 -26 8 -66 11 -90 5 -43 8 -46 98 -130
20 -19 36 -42 36 -52 0 -17 26 -40 45 -40 3 0 5 68 4 152 -1 102 2 153 9 156
29 9 31 -25 48 -670 l6 -208 -24 0 c-64 -1 -152 -73 -201 -165 -30 -57 -29
-143 3 -220 22 -54 30 -63 78 -87 29 -15 79 -30 110 -33 31 -4 70 -11 86 -16
33 -10 53 -2 37 14 -6 6 -11 22 -11 36 0 40 -12 50 -68 61 -60 11 -91 25 -93
43 -6 43 5 214 13 225 12 14 48 17 48 4 0 -5 -9 -17 -20 -27 -26 -23 -25 -40
2 -59 30 -21 50 -20 76 4 27 26 27 35 1 61 -30 30 -14 37 29 14 34 -19 37 -24
37 -65 0 -38 5 -50 34 -79 27 -25 39 -31 50 -24 27 17 45 66 44 123 0 52 1 54
15 32 8 -12 21 -22 28 -22 41 0 -18 111 -80 149 -20 13 -50 21 -75 21 -29 0
-40 4 -35 11 6 10 15 454 14 694 -1 109 2 116 53 109 34 -5 47 -2 66 15 13 12
35 21 48 21 13 0 34 11 47 25 13 14 31 25 40 25 14 0 16 -13 16 -85 0 -92 2
-89 -61 -99 -46 -8 -119 -71 -156 -134 -24 -40 -27 -55 -25 -121 3 -99 15
-132 62 -175 63 -57 103 -72 181 -68 27 2 89 51 89 70 0 6 -12 12 -27 14 -26
3 -28 7 -33 53 -7 61 -15 75 -44 75 -30 0 -44 -17 -48 -60 -2 -23 -8 -35 -18
-35 -12 0 -15 19 -14 109 0 75 4 111 12 114 8 2 12 -8 12 -27 0 -67 93 -81
112 -16 5 17 12 36 14 44 8 25 33 -9 40 -55 9 -65 25 -78 70 -56 l36 17 -4 60
c-3 47 -11 70 -36 106 -18 26 -39 49 -47 53 -8 3 -15 10 -15 16 0 16 28 12 42
-8 7 -9 25 -25 40 -34 14 -10 41 -39 60 -65 30 -44 33 -54 33 -123 0 -60 -5
-85 -25 -124 -29 -56 -125 -150 -178 -172 -33 -14 -35 -16 -18 -26 14 -8 25
-5 47 11 15 12 35 21 44 21 21 0 122 96 131 124 3 11 15 31 26 43 17 19 22 43
29 165 4 79 8 200 8 271 1 105 4 127 16 127 26 0 33 -33 34 -175 4 -359 14
-662 22 -677 11 -21 64 -24 76 -5 4 6 8 125 9 262 1 138 6 320 11 405 11 180
8 190 -61 210 -51 14 -118 78 -142 135 -23 56 -18 143 12 203 24 49 86 112
109 112 5 0 30 14 55 30 52 34 85 37 173 14z m-4993 -4 c0 -5 -13 -16 -29 -24
-15 -8 -49 -38 -75 -67 -51 -57 -55 -57 -26 2 29 56 130 126 130 89z m5685 0
c3 -5 2 -10 -4 -10 -5 0 -18 -3 -28 -7 -16 -6 -16 -5 -4 10 15 19 27 22 36 7z
m-2978 -42 c30 -31 48 -62 64 -112 20 -61 21 -74 11 -125 -7 -31 -24 -74 -40
-96 -27 -39 -142 -125 -168 -125 -30 0 -22 22 18 47 24 16 55 39 69 53 35 33
79 139 79 189 0 48 -46 138 -92 180 l-33 30 25 1 c17 0 40 -14 67 -42z m4715
7 c75 -61 95 -83 118 -130 19 -40 22 -56 16 -112 -4 -36 -16 -83 -26 -104 -26
-50 -144 -151 -195 -166 -119 -34 -114 -34 -131 -2 -10 19 -33 38 -67 53 -133
60 -190 216 -125 341 14 28 37 60 50 72 24 23 98 58 98 47 0 -3 -18 -27 -41
-52 -62 -71 -82 -116 -77 -177 7 -78 39 -134 105 -183 61 -45 94 -51 164 -32
45 13 142 111 137 139 -2 10 7 27 21 38 31 26 33 101 3 159 -24 48 -91 111
-127 120 -34 8 -32 24 4 24 18 0 45 -13 73 -35z m-1607 14 c11 -17 0 -20 -21
-4 -17 13 -17 14 -2 15 9 0 20 -5 23 -11z m855 -19 c8 -16 8 -18 -4 -14 -17 6
-30 34 -16 34 5 0 14 -9 20 -20z m-4802 -12 c7 -7 12 -15 12 -20 0 -12 -28 2
-34 18 -7 17 6 18 22 2z m3682 -40 c-55 -56 -70 -92 -70 -177 0 -91 8 -110 77
-175 l58 -56 -36 0 c-46 0 -76 24 -124 96 -35 52 -38 63 -39 128 -1 61 3 78
27 118 37 61 91 108 124 108 26 0 25 -1 -17 -42z m810 28 c0 -7 -7 -20 -16
-27 -9 -8 -28 -31 -41 -53 -23 -36 -24 -44 -18 -120 9 -100 20 -121 90 -182
49 -41 63 -48 110 -52 65 -5 92 9 124 64 19 32 20 36 4 29 -33 -15 -103 -17
-133 -5 -78 32 -115 151 -68 220 30 45 100 84 134 76 32 -8 97 -68 136 -123
24 -36 32 -42 44 -32 18 15 18 86 -1 123 -22 42 -20 59 5 46 27 -14 83 -127
77 -154 -17 -74 -51 -135 -105 -189 -52 -52 -65 -59 -123 -71 -87 -18 -143 -8
-213 38 -122 81 -166 206 -112 321 31 68 106 132 106 91z m1524 -53 c-33 -50
-54 -97 -54 -120 0 -12 11 -57 25 -100 13 -42 23 -79 21 -80 -9 -9 -38 13 -57
44 -45 73 -21 208 47 262 36 28 40 26 18 -6z m-5270 -4 c28 -22 86 -127 86
-156 0 -20 -78 -93 -100 -93 -23 0 -40 20 -40 47 0 29 -34 64 -55 57 -8 -4
-15 -18 -15 -33 0 -15 -7 -36 -15 -47 -15 -19 -15 -19 -30 0 -8 11 -12 28 -9
38 3 10 6 55 6 98 0 70 2 82 21 95 33 23 118 20 151 -6z m-666 -40 c20 -37 23
-54 19 -106 -5 -73 -28 -114 -100 -184 -46 -45 -77 -61 -77 -41 0 5 21 31 46
58 85 89 111 182 79 274 -18 51 -18 53 -3 48 7 -3 23 -24 36 -49z m-266 25 c4
-3 -1 -18 -10 -34 -21 -36 -6 -56 46 -63 20 -3 55 -12 77 -20 37 -14 40 -18
43 -57 3 -37 -1 -48 -30 -77 -32 -34 -35 -35 -91 -29 -97 10 -95 7 -91 147 2
88 6 124 16 130 15 10 32 11 40 3z m98 -15 c0 -12 -37 -12 -44 0 -7 11 14 20
32 13 6 -2 12 -8 12 -13z m2324 12 c3 -5 -1 -11 -9 -15 -15 -6 -29 7 -18 18 9
9 21 8 27 -3z m4242 -53 c8 -15 14 -40 14 -57 0 -37 -55 -189 -77 -214 -22
-23 -142 -87 -165 -87 -28 0 -21 13 23 40 46 28 88 77 142 167 42 68 48 118
22 180 l-15 36 21 -19 c11 -10 27 -31 35 -46z m-1082 43 c3 -4 -3 -16 -14 -26
-43 -39 -3 -105 55 -91 51 13 49 76 -3 102 l-23 11 22 6 c26 7 94 -25 103 -48
12 -33 6 -63 -20 -90 -23 -25 -30 -27 -71 -21 -58 8 -83 -6 -83 -45 0 -29 -23
-50 -38 -35 -4 4 -5 53 -3 109 2 75 7 107 18 120 17 18 48 23 57 8z m-6273
-35 c23 -39 44 -39 53 0 4 13 13 24 22 24 14 0 15 -14 12 -99 -3 -90 -5 -102
-28 -126 -20 -21 -31 -25 -55 -20 -16 3 -48 7 -70 8 -49 3 -65 28 -65 109 0
31 -4 60 -10 63 -5 3 -10 16 -10 28 1 20 3 19 28 -11 33 -39 50 -41 58 -4 9
37 23 62 35 62 5 0 19 -15 30 -34z m7033 -97 c-8 -62 0 -95 30 -114 47 -31 86
17 86 108 0 55 17 86 40 72 13 -8 13 -150 0 -175 -11 -20 -74 -60 -96 -60 -22
0 -74 41 -89 70 -8 16 -11 48 -8 85 6 82 9 90 28 75 12 -10 14 -24 9 -61z
m-604 -62 c0 -18 -21 -37 -42 -37 -15 0 -16 3 -6 25 12 26 48 35 48 12z m1030
-62 c0 -19 -4 -35 -10 -35 -5 0 -10 16 -10 35 0 19 5 35 10 35 6 0 10 -16 10
-35z m-3959 -164 c1 -53 -1 -103 -5 -109 -19 -31 -26 -3 -26 107 0 197 26 198
31 2z m772 22 c5 -93 4 -113 -9 -124 -25 -21 -32 4 -27 109 8 182 27 190 36
15z m2662 97 c9 -10 42 -36 72 -56 36 -25 52 -43 48 -53 -3 -8 6 -27 22 -43
24 -25 25 -28 7 -28 -24 0 -140 123 -178 188 -11 19 9 14 29 -8z m-1095 -74
c0 -40 5 -88 11 -105 10 -27 9 -36 -4 -48 -8 -9 -23 -13 -31 -10 -14 6 -16 20
-11 104 7 118 12 146 25 138 6 -3 10 -39 10 -79z m728 -46 c4 -91 -4 -116 -23
-80 -15 26 -20 141 -8 154 18 18 28 -7 31 -74z m-4013 8 c0 -52 -3 -63 -18
-66 -10 -2 -20 4 -23 15 -3 10 -11 28 -17 40 -9 19 -6 27 14 47 37 37 44 31
44 -36z m-629 -21 c1 -34 5 -77 9 -96 7 -29 6 -33 -11 -29 -15 3 -20 14 -22
58 -4 63 6 145 16 135 4 -4 7 -34 8 -68z m6171 26 c-3 -10 -5 -2 -5 17 0 19 2
27 5 18 2 -10 2 -26 0 -35z m-787 8 c0 -10 -7 -21 -15 -25 -15 -5 -22 24 -8
37 12 13 23 7 23 -12z m-8074 -33 c-14 -32 -36 -50 -36 -28 0 14 32 59 42 60
4 0 1 -14 -6 -32z m7172 -37 c-2 -33 -8 -48 -23 -56 -49 -25 -75 -50 -113
-104 -23 -32 -49 -64 -58 -72 -16 -13 -17 -10 -10 51 4 36 10 92 12 125 7 86
8 89 41 71 64 -33 101 -24 117 26 3 11 11 15 21 12 12 -5 15 -18 13 -53z m897
-25 c0 -22 -14 -29 -34 -17 -19 12 -6 43 16 39 10 -2 18 -12 18 -22z m-8375
-53 c0 -13 -7 -10 -30 12 -16 16 -30 30 -30 32 0 2 14 -3 30 -12 17 -9 30 -23
30 -32z m8250 10 l35 -15 -33 -14 c-32 -14 -77 -10 -88 7 -3 5 -2 18 1 30 7
21 18 20 85 -8z m-1733 -15 c-3 -7 -5 -2 -5 12 0 14 2 19 5 13 2 -7 2 -19 0
-25z m-6180 -15 c-16 -16 -17 -16 -17 3 0 11 3 24 7 28 4 3 11 2 17 -4 7 -7 5
-16 -7 -27z m5078 27 c3 -5 -1 -10 -9 -10 -9 0 -16 5 -16 10 0 6 4 10 9 10 6
0 13 -4 16 -10z m-4740 -26 c14 -9 25 -20 25 -24 0 -8 -84 20 -96 33 -15 14
48 6 71 -9z m5825 -21 c0 -19 -3 -24 -10 -17 -6 6 -8 18 -4 27 9 24 14 21 14
-10z m-1028 -2 c8 -10 20 -20 26 -22 19 -7 18 -43 -1 -47 -12 -3 -19 5 -23 27
-4 16 -12 32 -20 35 -15 6 -20 26 -6 26 4 0 15 -8 24 -19z m2947 -48 c56 -57
111 -139 111 -165 0 -7 -12 -38 -26 -68 -15 -30 -31 -64 -36 -75 -8 -18 -51
-65 -121 -134 l-25 -23 -38 18 c-34 17 -36 19 -16 22 12 2 30 15 40 29 9 14
29 38 43 52 14 15 30 37 34 50 4 13 19 34 32 46 19 16 27 34 30 72 5 44 1 59
-25 105 -17 29 -44 66 -61 82 -35 33 -39 46 -15 46 10 0 42 -26 73 -57z
m-8709 -47 c0 -20 -26 -40 -35 -26 -10 16 2 40 20 40 8 0 15 -6 15 -14z m78
-34 c2 -18 -1 -32 -6 -32 -12 0 -33 56 -24 64 13 13 27 -2 30 -32z m117 12
c21 -21 15 -49 -10 -49 -15 0 -21 8 -23 33 -4 35 8 41 33 16z m723 -26 c3 -30
-1 -38 -18 -43 -20 -6 -50 9 -50 26 0 4 5 20 10 34 7 20 16 26 33 23 17 -2 23
-10 25 -40z m6981 -17 c52 -51 61 -65 61 -95 0 -43 -39 -92 -95 -117 -54 -25
-75 -24 -115 6 -92 68 -94 150 -6 225 28 24 56 37 83 39 7 1 39 -26 72 -58z
m-6239 34 c7 -9 10 -19 6 -22 -8 -9 -38 9 -44 25 -5 17 23 15 38 -3z m640 9
c0 -4 -14 -22 -30 -41 -25 -28 -31 -31 -36 -18 -11 28 13 65 41 65 14 0 25 -3
25 -6z m108 -14 c40 -25 62 -73 62 -136 0 -42 -4 -51 -40 -85 -48 -46 -79 -56
-129 -40 -64 19 -73 37 -63 122 l9 74 8 -53 c6 -39 14 -57 31 -69 32 -20 57
-10 94 40 34 46 34 79 -1 129 -32 44 -23 50 29 18z m-868 -36 c4 -25 11 -30
55 -40 78 -18 115 -43 115 -79 0 -36 -24 -67 -67 -89 -46 -23 -68 -20 -108 15
-44 39 -47 64 -7 54 58 -14 77 -11 80 12 3 17 -12 37 -54 77 -40 39 -55 60
-50 71 9 25 30 13 36 -21z m4687 14 c-3 -8 -6 -5 -6 6 -1 11 2 17 5 13 3 -3 4
-12 1 -19z m2319 -18 c7 -14 22 -50 34 -80 12 -30 29 -63 37 -72 19 -21 13
-62 -9 -66 -10 -2 -33 8 -51 22 -39 30 -55 32 -83 11 -42 -32 -62 -6 -39 49
19 45 28 50 62 33 33 -17 53 -12 53 13 0 14 -9 20 -32 22 -27 2 -34 8 -36 30
-7 61 40 89 64 38z m-8191 -32 c-8 -40 -48 -100 -87 -134 -42 -34 -123 -56
-171 -45 -47 11 -59 21 -25 21 53 0 135 48 205 119 37 39 72 70 76 71 5 0 6
-15 2 -32z m6269 -250 c-1 -73 -3 -136 -3 -140 -1 -5 -8 -8 -16 -8 -18 0 -17
-4 -20 95 -2 49 2 94 10 115 7 19 16 43 19 53 3 9 7 17 9 17 2 0 3 -60 1 -132z
m-6609 102 c3 -6 -1 -7 -9 -4 -18 7 -21 14 -7 14 6 0 13 -4 16 -10z m3301
-227 l-1 -98 28 -5 29 -5 -32 -40 c-60 -76 -83 -132 -77 -195 6 -69 39 -149
76 -184 31 -30 129 -54 174 -42 32 8 77 71 77 108 0 35 46 70 61 47 15 -24 42
3 62 62 15 43 17 64 9 101 -5 26 -5 45 0 42 16 -10 58 -103 58 -128 0 -78
-111 -237 -176 -251 -16 -4 -47 -12 -69 -18 -40 -12 -40 -12 -37 -57 2 -25 10
-53 19 -62 27 -30 -25 -45 -167 -49 l-125 -4 -1 60 c-2 101 16 739 22 763 4
18 33 40 70 52 1 0 1 -44 0 -97z m3229 87 c-3 -5 -11 -10 -16 -10 -6 0 -7 5
-4 10 3 6 11 10 16 10 6 0 7 -4 4 -10z m2262 -94 c-6 -17 -31 -13 -35 6 -2 12
2 15 18 11 11 -3 19 -11 17 -17z m383 -7 c0 -5 -7 -9 -15 -9 -15 0 -20 12 -9
23 8 8 24 -1 24 -14z m-8965 -111 c-73 -59 -135 -124 -155 -164 -18 -35 -19
-36 -14 -9 10 44 49 117 76 141 35 33 91 64 113 64 15 0 11 -7 -20 -32z m8430
-7 c3 -5 1 -12 -5 -16 -5 -3 -10 1 -10 9 0 18 6 21 15 7z m-1126 -58 c10 -19
-2 -53 -19 -53 -18 0 -32 40 -19 56 15 19 26 18 38 -3z m718 -54 c3 -51 -10
-80 -27 -63 -15 15 -2 116 14 111 6 -2 12 -24 13 -48z m-1543 22 c19 -21 11
-54 -12 -49 -21 4 -36 32 -29 52 8 21 20 20 41 -3z m-4634 -11 c0 -10 -9 -24
-20 -30 -15 -8 -20 -21 -20 -55 0 -39 4 -47 36 -71 38 -30 44 -68 12 -88 -20
-12 -58 16 -58 44 0 9 -5 21 -12 28 -21 21 -44 13 -59 -20 -9 -21 -22 -34 -36
-36 -33 -5 -29 19 12 68 42 50 45 86 10 124 -29 31 -32 46 -10 46 9 0 21 -11
27 -25 16 -35 51 -33 78 5 25 35 40 39 40 10z m3784 -2 c27 -39 17 -128 -15
-128 -8 0 -39 92 -39 118 0 38 31 44 54 10z m-4674 -33 c23 -42 44 -42 75 -1
29 38 55 47 55 20 0 -9 -11 -29 -25 -46 -29 -34 -49 -101 -41 -135 9 -33 -10
-65 -37 -61 -20 3 -22 9 -23 81 -2 66 -6 83 -28 115 -14 21 -26 44 -26 51 0
22 33 7 50 -24z m2275 25 c4 -6 12 -32 18 -58 10 -40 16 -47 37 -47 20 0 27 9
45 55 21 54 52 77 48 35 -4 -41 -55 -210 -66 -217 -36 -23 -67 9 -67 66 0 25
-11 68 -25 100 -14 31 -25 61 -25 66 0 13 27 13 35 0z m4075 -83 c0 -8 -3 -17
-7 -20 -9 -9 -34 13 -27 24 8 14 34 11 34 -4z m1498 -19 c9 -9 18 -9 37 0 14
7 35 12 47 12 18 0 20 -4 15 -40 -7 -56 -24 -73 -61 -66 -39 8 -86 53 -86 83
0 25 27 32 48 11z m-8608 -13 c7 -8 18 -15 25 -15 7 0 18 7 25 15 32 39 52 -1
30 -59 -8 -22 -16 -26 -49 -26 -31 0 -44 6 -60 26 -30 38 -27 74 4 74 7 0 18
-7 25 -15z m5405 -63 c-5 -14 -8 -14 -15 -2 -5 8 -4 22 3 34 10 19 11 20 15 3
2 -10 1 -26 -3 -35z m3099 26 c16 -26 -16 -57 -38 -38 -17 13 -21 42 -9 54 11
11 35 3 47 -16z m-8636 0 c7 -7 12 -20 12 -31 0 -30 -34 -16 -38 16 -4 29 6
35 26 15z m6432 -7 c21 -40 -26 -79 -58 -47 -13 12 -13 20 -4 41 14 30 47 33
62 6z m1529 -24 c6 -8 8 -17 4 -20 -10 -11 -51 -8 -58 3 -17 27 33 42 54 17z
m-709 -26 c0 -10 -7 -24 -16 -31 -12 -11 -18 -10 -31 3 -13 13 -14 19 -3 31
18 22 50 20 50 -3z m-6140 -30 c0 -17 -27 -37 -37 -27 -7 7 17 46 27 46 6 0
10 -9 10 -19z m7770 -10 c0 -26 -75 -85 -98 -76 -14 5 -9 13 28 49 50 48 70
56 70 27z m-8923 -163 c53 -23 95 -26 175 -10 57 11 99 36 176 106 25 24 32
26 32 13 0 -32 -69 -114 -109 -130 -21 -9 -41 -23 -44 -31 -5 -13 -23 -16 -89
-16 -73 0 -90 4 -143 31 -33 17 -73 43 -89 58 -29 26 -86 108 -86 123 0 4 30
-22 66 -58 36 -36 86 -75 111 -86z"/>
<path d="M13190 5171 c-68 -24 -154 -112 -171 -175 -24 -88 12 -175 100 -243
84 -65 161 -64 240 3 33 28 42 43 38 60 -2 13 1 22 7 21 5 -1 13 17 16 40 4
23 14 51 23 61 34 37 11 128 -45 178 -39 36 -106 74 -130 74 -13 -1 -48 -9
-78 -19z m88 -113 c19 -19 15 -58 -6 -58 -25 0 -56 35 -49 55 8 18 38 20 55 3z
m20 -197 c4 -29 -20 -51 -55 -51 -28 0 -31 25 -7 58 21 31 58 26 62 -7z"/>
<path d="M9211 4794 c0 -11 3 -14 6 -6 3 7 2 16 -1 19 -3 4 -6 -2 -5 -13z"/>
<path d="M9270 4745 c-7 -9 -10 -18 -7 -21 7 -8 47 14 47 26 0 15 -26 12 -40
-5z"/>
<path d="M7025 3473 c-10 -27 -22 -61 -28 -78 -6 -16 -31 -53 -54 -82 -24 -29
-43 -55 -43 -58 0 -14 76 44 110 84 47 55 64 100 56 147 -9 47 -21 43 -41 -13z"/>
<path d="M7965 3450 c-4 -6 -4 -52 0 -103 3 -51 8 -130 10 -177 2 -47 5 -92 7
-100 2 -10 -9 -16 -37 -20 -68 -10 -115 -40 -160 -101 -82 -111 -79 -212 7
-295 98 -95 187 -106 272 -36 68 56 104 108 117 166 15 67 7 109 -31 164 -33
50 -62 75 -105 90 -26 9 -27 11 -7 11 34 1 91 -39 145 -103 27 -31 53 -56 58
-56 14 0 11 48 -6 79 -18 35 -82 87 -117 96 -37 10 -48 44 -48 158 0 78 -5
111 -19 142 -23 49 -76 102 -86 85z m-54 -569 c-51 -60 -52 -88 -7 -135 42
-45 74 -46 126 -5 45 37 74 35 78 -3 3 -23 -4 -32 -44 -58 -68 -43 -103 -40
-159 11 -58 53 -72 100 -49 159 10 25 30 50 48 61 49 30 51 23 7 -30z m154 24
c53 -52 19 -61 -39 -10 l-39 35 27 0 c15 0 37 -11 51 -25z"/>
<path d="M8215 2689 c-16 -24 -44 -62 -63 -83 -41 -46 -29 -60 21 -26 56 39
95 110 77 140 -6 9 -16 0 -35 -31z"/>
<path d="M5603 4310 c-36 -34 -47 -61 -39 -95 7 -29 38 -40 67 -25 12 7 35 9
52 6 65 -13 79 54 23 110 -42 42 -62 43 -103 4z"/>
<path d="M8804 4451 c-40 -10 -105 -62 -141 -113 -24 -36 -27 -50 -29 -125 -1
-77 1 -87 27 -122 40 -56 135 -111 190 -111 37 0 53 7 99 45 30 25 57 50 58
55 5 14 -20 12 -43 -4 -11 -7 -34 -17 -52 -20 -25 -6 -36 -3 -53 14 -20 20
-21 28 -14 74 12 77 9 114 -9 134 -30 33 -21 42 41 42 32 0 62 -3 65 -6 4 -4
-5 -20 -18 -36 -28 -33 -30 -41 -15 -69 14 -24 32 -24 55 1 23 25 40 25 65 0
19 -19 20 -19 30 0 42 78 -37 201 -151 234 -57 17 -59 17 -105 7z"/>
<path d="M10421 4438 c-43 -12 -106 -65 -143 -120 -23 -35 -28 -54 -28 -102 0
-80 27 -133 96 -189 61 -51 110 -64 173 -47 58 15 155 121 149 162 -3 22 -5
21 -20 -8 -27 -50 -86 -84 -145 -84 -43 0 -55 4 -81 31 -30 31 -30 32 -27 127
1 60 7 98 14 100 7 2 11 -22 11 -76 0 -72 3 -84 26 -111 14 -17 34 -31 45 -31
21 0 49 47 49 84 0 14 4 35 9 48 6 13 12 40 16 61 7 44 31 50 45 10 17 -47 55
-122 61 -123 12 0 32 62 31 94 -2 48 -17 80 -58 125 -51 57 -133 75 -223 49z"/>
<path d="M11251 3902 c-19 -36 24 -56 54 -26 12 12 13 19 4 30 -16 20 -46 17
-58 -4z"/>
<path d="M10487 3793 c-12 -11 -8 -23 8 -23 8 0 15 7 15 15 0 16 -12 20 -23 8z"/>
<path d="M9020 3729 c-51 -22 -124 -97 -147 -148 -11 -26 -13 -52 -8 -100 9
-89 23 -118 84 -175 50 -46 55 -48 99 -44 45 5 162 67 162 87 0 4 -30 7 -67 7
-80 -1 -119 20 -149 81 -33 70 -17 141 41 179 36 23 42 10 11 -21 -55 -55 -62
-111 -19 -151 64 -59 140 -32 100 36 -21 34 -15 40 40 40 55 0 83 -26 83 -77
l0 -38 26 26 c14 14 30 45 35 68 8 37 6 51 -15 97 -14 30 -40 67 -57 82 -89
75 -140 87 -219 51z m170 -131 c0 -13 -23 -5 -28 10 -2 7 2 10 12 6 9 -3 16
-11 16 -16z"/>
<path d="M8873 3281 c4 -18 7 -60 7 -92 0 -46 3 -59 15 -59 17 0 21 35 5 45
-5 3 -10 14 -10 25 0 19 19 30 50 30 26 0 35 19 13 27 -10 4 -33 18 -52 32
l-34 26 6 -34z"/>
<path d="M8980 3216 c0 -22 18 -29 58 -21 35 6 36 8 17 21 -25 19 -75 18 -75
0z"/>
<path d="M12294 3219 c-8 -14 14 -29 42 -29 18 0 34 17 34 36 0 9 -69 3 -76
-7z"/>
<path d="M13000 3218 c-24 -10 -24 -10 -5 -18 28 -12 83 -12 90 -1 6 11 -26
31 -47 30 -7 0 -24 -5 -38 -11z"/>
<path d="M10244 3070 c-47 -11 -96 -44 -133 -90 -49 -61 -64 -106 -58 -169 16
-152 174 -251 290 -182 43 27 45 33 15 46 -26 12 -33 24 -53 97 -13 47 -20 59
-40 64 -46 11 -76 87 -40 100 22 9 43 -13 57 -57 10 -35 14 -39 45 -39 29 0
33 3 33 28 0 32 14 57 27 49 6 -4 24 -36 42 -72 18 -36 39 -65 46 -65 8 0 19
18 26 39 10 33 9 48 -5 92 -25 75 -63 117 -133 145 -61 25 -70 26 -119 14z m0
-316 c8 -29 -5 -50 -23 -40 -12 8 -15 49 -4 59 12 13 21 7 27 -19z"/>
<path d="M10451 3049 c6 -12 28 -40 49 -63 53 -58 60 -76 60 -152 0 -89 -24
-138 -103 -209 -61 -55 -68 -72 -25 -62 39 10 105 74 139 135 30 51 33 64 33
138 0 77 -2 84 -38 138 -36 54 -85 96 -114 96 -10 0 -10 -5 -1 -21z"/>
<path d="M12950 2956 c0 -9 5 -16 10 -16 6 0 10 4 10 9 0 6 -4 13 -10 16 -5 3
-10 -1 -10 -9z"/>
<path d="M13674 2773 c-4 -15 -18 -47 -31 -70 -14 -24 -21 -43 -16 -43 18 0
73 79 73 104 0 36 -18 42 -26 9z"/>
<path d="M9486 2771 c-32 -36 16 -81 67 -62 38 15 45 40 18 63 -30 23 -63 23
-85 -1z"/>
<path d="M9786 2708 c-7 -18 -30 -50 -50 -71 -46 -49 -49 -70 -6 -47 26 14 90
106 90 130 0 31 -18 24 -34 -12z"/>
<path d="M14531 2698 c-11 -29 -6 -58 10 -58 14 0 22 47 11 67 -10 16 -12 16
-21 -9z"/>
<path d="M11280 2615 c-7 -8 -8 -15 -2 -15 5 0 15 7 22 15 7 8 8 15 2 15 -5 0
-15 -7 -22 -15z"/>
<path d="M14486 2594 c-8 -21 -8 -24 3 -24 12 0 22 28 12 35 -5 3 -12 -2 -15
-11z"/>
<path d="M12034 4292 c-52 -41 -60 -118 -17 -158 55 -51 94 -40 135 40 22 44
18 79 -14 114 -26 27 -74 29 -104 4z"/>
<path d="M8052 4320 c-16 -26 -15 -45 3 -60 23 -19 75 5 75 34 0 45 -54 63
-78 26z"/>
<path d="M7242 4178 c-26 -26 1 -65 37 -53 28 8 36 37 15 52 -22 16 -37 16
-52 1z"/>
<path d="M12973 3580 c-13 -5 -33 -30 -45 -55 l-23 -46 20 -37 c11 -21 32 -41
47 -46 23 -8 32 -6 54 15 43 40 57 75 44 114 -17 51 -54 72 -97 55z"/>
<path d="M14370 14119 c-73 -12 -89 -31 -83 -101 7 -82 3 -79 85 -72 102 8
109 10 146 43 40 37 40 61 1 106 -34 38 -47 40 -149 24z"/>
<path d="M3665 14065 c25 -25 51 -59 57 -76 9 -27 51 -59 78 -59 20 0 9 30
-24 63 -18 19 -39 44 -45 56 -14 26 -68 61 -94 61 -14 0 -7 -12 28 -45z"/>
<path d="M3340 13389 c0 -7 9 -26 20 -45 24 -38 13 -52 -30 -34 -37 15 -75 -2
-61 -28 17 -33 46 -51 86 -54 36 -3 40 -6 43 -33 2 -24 -8 -42 -49 -90 -28
-33 -59 -70 -67 -83 -9 -13 -26 -28 -39 -33 -47 -17 -37 -69 13 -69 20 0 24 5
24 29 0 16 7 35 17 42 9 8 39 41 66 74 27 33 71 79 98 101 40 35 57 43 106 48
138 17 173 42 129 93 -23 27 -25 27 -38 10 -10 -13 -32 -20 -75 -24 -57 -5
-65 -3 -109 26 -26 17 -50 31 -54 31 -4 0 -13 11 -20 25 -14 25 -60 36 -60 14z"/>
<path d="M3497 13113 c-4 -3 -4 -23 -1 -43 6 -35 3 -41 -37 -80 -46 -44 -77
-63 -121 -74 -16 -3 -28 -10 -28 -15 0 -16 31 -21 81 -15 86 11 136 57 146
133 8 57 -18 117 -40 94z"/>
<path d="M3960 12938 c-27 -45 -25 -73 6 -97 35 -28 46 -27 83 8 37 35 39 64
6 96 -35 36 -71 33 -95 -7z"/>
<path d="M2946 12414 c-8 -21 -6 -273 3 -304 6 -23 13 -26 101 -35 52 -6 105
-16 117 -23 13 -7 24 -8 28 -3 8 14 24 195 25 280 0 66 -2 72 -17 65 -10 -5
-56 -7 -103 -5 -63 2 -93 8 -116 22 -28 17 -32 18 -38 3z"/>
<path d="M3330 11565 c-18 -47 -13 -55 30 -55 36 0 40 -3 40 -24 0 -39 -48
-125 -79 -141 -41 -21 -46 -43 -16 -75 27 -28 34 -70 12 -70 -8 0 -24 11 -37
25 l-24 25 -23 -22 c-35 -33 -30 -55 17 -68 42 -11 80 -6 80 11 0 5 10 7 23 4
36 -10 53 15 75 115 12 52 31 127 42 165 34 118 34 124 14 132 -13 5 -25 -3
-46 -27 -29 -35 -43 -33 -50 5 -5 32 -46 32 -58 0z"/>
<path d="M2932 11383 c2 -9 9 -18 16 -21 18 -6 15 25 -4 32 -11 4 -14 1 -12
-11z"/>
<path d="M15205 11389 c-9 -14 4 -137 15 -144 5 -3 11 3 14 12 9 29 10 118 2
131 -9 15 -23 15 -31 1z"/>
</g>
</svg>
